<?xml version="1.0" encoding="UTF-8" standalone="no"?>
<!-- Created with Inkscape (http://www.inkscape.org/) -->

<svg
   xmlns:dc="http://purl.org/dc/elements/1.1/"
   xmlns:cc="http://creativecommons.org/ns#"
   xmlns:rdf="http://www.w3.org/1999/02/22-rdf-syntax-ns#"
   xmlns:svg="http://www.w3.org/2000/svg"
   xmlns="http://www.w3.org/2000/svg"
   xmlns:sodipodi="http://sodipodi.sourceforge.net/DTD/sodipodi-0.dtd"
   xmlns:inkscape="http://www.inkscape.org/namespaces/inkscape"
   width="73.195877mm"
   height="31.127678mm"
   viewBox="0 0 259.35547 110.29492"
   id="svg7497"
   version="1.1"
   inkscape:version="0.91 r13725"
   sodipodi:docname="inverted_drk.svg">
  <defs
     id="defs7499">
    <pattern
       y="0"
       x="0"
       height="6"
       width="6"
       patternUnits="userSpaceOnUse"
       id="WMFhbasepattern" />
  </defs>
  <sodipodi:namedview
     id="base"
     pagecolor="#ffffff"
     bordercolor="#666666"
     borderopacity="1.0"
     inkscape:pageopacity="0.0"
     inkscape:pageshadow="2"
     inkscape:zoom="0.5"
     inkscape:cx="613.99536"
     inkscape:cy="50.611488"
     inkscape:document-units="px"
     inkscape:current-layer="layer4"
     showgrid="false"
     inkscape:window-width="1849"
     inkscape:window-height="1057"
     inkscape:window-x="1912"
     inkscape:window-y="-8"
     inkscape:window-maximized="1"
     fit-margin-top="0"
     fit-margin-left="0"
     fit-margin-right="0"
     fit-margin-bottom="0" />
  <metadata
     id="metadata7502">
    <rdf:RDF>
      <cc:Work
         rdf:about="">
        <dc:format>image/svg+xml</dc:format>
        <dc:type
           rdf:resource="http://purl.org/dc/dcmitype/StillImage" />
        <dc:title></dc:title>
      </cc:Work>
    </rdf:RDF>
  </metadata>
  <g
     inkscape:label="Layer 1"
     inkscape:groupmode="layer"
     id="layer1"
     transform="translate(-213.17773,-415.46289)" />
  <g
     inkscape:groupmode="layer"
     id="layer4"
     inkscape:label="Layer 2"
     transform="translate(-213.17773,-415.46289)">
    <path
       style="fill:#1a1a1a;fill-opacity:1;fill-rule:evenodd;stroke:none"
       d="m 297.88477,415.46289 -5.625,12.4082 -41.69141,0 -37.39063,0 0,13.51172 0,42.13281 0,42.24219 c 89.98128,-0.21779 185.59486,-0.0109 259.35547,0 l 0,-12.79492 0,-29.44727 0,-35.67968 0,-6.45313 0,-13.51172 -34.08008,0 -68.71289,0 -49.63281,0 c -22.2228,-12.40815 -5e-5,5e-5 -22.22265,-12.4082 z m 46.875,24.81641 2.97656,0.16601 2.8125,0.44141 1.82031,0.49609 0.77148,0.22071 2.37305,1.04687 2.15039,1.32422 0.38477,0.27539 1.93164,1.76562 1.59961,2.03907 1.21289,2.3164 0.60547,1.6543 0.27539,0.77344 0.0586,0.16406 0.77149,3.64063 0.2207,0.9375 -6.72852,0 -0.16406,-0.60743 -0.71875,-2.20507 -0.33008,-0.9375 -0.55078,-0.99219 -0.60742,-1.04883 -0.55078,-0.7168 -0.9375,-0.99218 -0.4961,-0.44141 -0.33203,-0.2207 -1.54297,-0.88282 -0.38671,-0.27539 -1.76563,-0.55078 -0.49609,-0.16601 -2.09571,-0.33008 -0.43945,-0.11133 -1.875,-0.0547 -1.65625,0.0547 -1.1582,0.11133 -1.6543,0.33008 -0.82617,0.16601 -1.54492,0.55078 -0.66016,0.27539 -1.49023,0.88282 -0.44141,0.2207 -0.49609,0.44141 -1.21289,0.99218 -0.55079,0.7168 -0.88281,1.04883 -0.55078,0.99219 -0.55273,0.9375 -0.77149,2.20507 -0.11133,0.60743 -0.38476,1.92968 -0.2207,2.86719 0,0.0547 0.2207,2.86914 0,0.16406 0.2207,1.21484 0.21875,1.15821 0.55274,1.54297 0.27539,0.71679 0.77148,1.43555 0.27539,0.60547 1.04883,1.26953 0.33203,0.43945 1.32227,1.21289 0.38672,0.33204 1.54492,0.9375 0.38476,0.2207 1.82032,0.66211 0.4414,0.16406 2.09375,0.38672 0.33203,0.0547 2.09571,0.11132 1.59961,-0.11132 1.04687,-0.0547 1.70899,-0.38672 0.71679,-0.16406 1.59961,-0.66211 0.55274,-0.2207 1.48828,-0.9375 0.49609,-0.33204 1.32422,-1.21289 0.44141,-0.43945 0.9375,-1.26953 0.4414,-0.60547 0.7168,-1.43555 0.33008,-0.71679 0.49609,-1.54297 0.33203,-1.15821 0.38477,-1.21484 6.89453,0 -0.99414,4.4668 -0.93555,2.64844 -1.21484,2.42578 -1.4336,2.15234 -1.70898,1.875 -1.1582,1.04688 -2.20703,1.48828 -2.25977,1.21484 -2.0957,0.77148 -0.38672,0.16407 -2.70117,0.60742 -2.8125,0.27539 -1.49024,0.0566 -0.7168,-0.0566 -2.20507,-0.10938 -2.75782,-0.4414 -1.65429,-0.4961 -0.9375,-0.27539 -2.3711,-1.04882 -2.15039,-1.32227 -2.04101,-1.65625 -0.66211,-0.66211 -1.6543,-1.92969 -1.37695,-2.15039 -1.10352,-2.3164 -0.82812,-2.53516 -0.55078,-2.75976 -0.27735,-2.86524 -0.0566,-1.54492 0.16602,-3.0332 0.38672,-2.8125 0.71679,-2.64649 0.9375,-2.42773 1.21289,-2.20508 1.54297,-1.98633 0.99414,-1.10351 1.875,-1.65235 2.09571,-1.37891 2.26171,-1.1582 1.98438,-0.66211 0.55078,-0.16601 2.70313,-0.60742 2.20703,-0.21485 0.22851,-0.006 0.48633,-0.0527 1.76563,-0.0566 z m 26.91211,0.0449 0.0508,0.32226 -0.0508,-0.20117 0,-0.12109 z m -128.87891,1.05859 20.73437,0 10.69922,0 0,6.5625 -4.41211,0 -20.18359,0 0,9.48438 0,0.38672 21.7832,0 0,6.72851 -21.7832,0 0,18.9707 -6.83789,0 0,-42.13281 z m 52.44336,0 5.46094,0 0.27539,0.66211 0.55078,1.1582 0.60742,1.37891 0.77148,1.65235 0.44141,1.10351 0.9375,1.98633 0.9375,2.20508 1.10352,2.42773 1.21289,2.64649 1.26757,2.8125 1.32422,3.0332 0.7168,1.54492 1.26758,2.86524 1.26953,2.75976 1.10156,2.53516 1.04883,2.3164 0.9375,2.15039 0.88281,1.92969 0.33008,0.66211 0.7168,1.65625 0.60742,1.32227 0.44141,1.04882 0.16406,0.27539 -6.83789,0 -5.73438,-12.6289 -15.27539,0 -2.92383,0 -5.79101,12.6289 -6.89258,0 8.87891,-19.6875 0.66211,-1.3789 2.26171,-5.01953 7.27735,-16.04688 z m 76.32422,0 0.27539,0 32.42773,0 0,6.45313 0,0.0547 -25.86523,0 0,8.7129 0,1.3789 23.71289,0 0,6.5625 -16.32227,0 -7.39062,0 0,12.4082 25.86523,0 0,4.2461 0,2.3164 -25.91992,0 -6.7832,0 0,-0.77148 0,-1.21484 0,-1.48828 0,-1.04688 0,-1.875 0,-2.15234 0,-2.42578 0,-2.64844 0,-4.4668 0,-0.16406 0,-2.86914 0,-0.0547 0,-2.86719 0,-1.92968 0,-0.9375 0,-4.57813 0,-1.6543 0,-2.3164 0,-2.03907 0,-1.76562 0,-0.27539 0,-1.32422 0,-1.04687 0,-0.22071 z m 39.54297,0 21.56054,0 15.38867,0 0,6.45313 -15.06054,0 0,35.67968 -6.83985,0 0,-2.3164 0,-24.5957 -0.60351,1.41015 0.004,-0.0312 0.59961,-1.3789 0,-8.7129 0,-0.0547 -15.04882,0 0,-6.45313 z m -113.16407,8.4375 -6.39648,14.39258 12.79297,0 -6.39649,-14.39258 z m -7.49023,44.17383 c 2.29256,0 4.16805,0.55766 5.62695,1.67188 1.45891,1.11421 2.33252,2.65327 2.6211,4.61718 l -1.80274,0 c -0.34469,-1.4589 -1.07894,-2.58162 -2.20117,-3.36718 -1.12223,-0.79358 -2.54611,-1.18946 -4.26953,-1.18946 -2.33264,0 -4.16719,0.68026 -5.50586,2.04297 -1.33866,1.35469 -2.00781,3.21908 -2.00781,5.5918 0,2.31661 0.64868,4.16423 1.94726,5.54297 1.29859,1.37874 3.03841,2.06836 5.21875,2.06836 1.79557,0 3.32157,-0.48515 4.58008,-1.45508 1.26652,-0.97795 2.08069,-2.29207 2.44141,-3.94336 l 1.88867,0 c -0.40882,2.19637 -1.40699,3.93424 -2.99414,5.2168 -1.58716,1.28255 -3.54256,1.92382 -5.86719,1.92382 -2.73344,0 -4.92314,-0.84944 -6.56641,-2.54882 -1.63525,-1.69938 -2.45312,-3.96705 -2.45312,-6.80469 0,-2.90979 0.83093,-5.19792 2.49023,-6.86524 1.6593,-1.66732 3.94373,-2.50195 6.85352,-2.50195 z m 78.05859,0 c 2.29257,0 4.16806,0.55766 5.62696,1.67188 1.4589,1.11421 2.33252,2.65327 2.62109,4.61718 l -1.80274,0 c -0.34468,-1.4589 -1.07893,-2.58162 -2.20117,-3.36718 -1.12223,-0.79358 -2.54415,-1.18946 -4.26757,-1.18946 -2.33265,0 -4.16916,0.68026 -5.50782,2.04297 -1.33866,1.35469 -2.00781,3.21908 -2.00781,5.5918 0,2.31661 0.65063,4.16423 1.94922,5.54297 1.29858,1.37874 3.03646,2.06836 5.2168,2.06836 1.79557,0 3.32352,-0.48515 4.58203,-1.45508 1.26652,-0.97795 2.08069,-2.29207 2.4414,-3.94336 l 1.88672,0 c -0.40881,2.19637 -1.40698,3.93424 -2.99414,5.2168 -1.58715,1.28255 -3.54256,1.92382 -5.86719,1.92382 -2.73344,0 -4.92118,-0.84944 -6.56445,-2.54882 -1.63525,-1.69938 -2.45312,-3.96705 -2.45312,-6.80469 0,-2.90979 0.82897,-5.19792 2.48828,-6.86524 1.6593,-1.66732 3.94373,-2.50195 6.85351,-2.50195 z m -117.65429,0.46875 2.04492,0 8.10351,17.7832 -1.79101,0 -2.48828,-5.49414 -9.72852,0 -2.51367,5.49414 -1.82617,0 8.19922,-17.7832 z m 12.45703,0 8.52539,0 c 2.11621,0 3.70732,0.40153 4.77344,1.20313 1.06612,0.80159 1.5996,1.99487 1.5996,3.58203 0,1.17834 -0.2491,2.12447 -0.74609,2.83789 -0.48897,0.7054 -1.26591,1.23519 -2.33203,1.58789 0.9058,0.14428 1.55078,0.44543 1.93555,0.90234 0.39278,0.45691 0.65669,1.28218 0.79297,2.47656 0.0561,0.45691 0.11188,1.08883 0.16796,1.89844 0.11223,1.7074 0.34457,2.80595 0.69727,3.29492 l -2.06641,0 c -0.22444,-0.68135 -0.37317,-1.63118 -0.44531,-2.84961 -0.0722,-1.22644 -0.12789,-2.00708 -0.16797,-2.34375 -0.11222,-0.88176 -0.43384,-1.50822 -0.96289,-1.87695 -0.52104,-0.37675 -1.35938,-0.56445 -2.51367,-0.56445 l -7.47852,0 0,7.63476 -1.77929,0 0,-17.7832 z m 38.62109,0 1.7793,0 0,7.41992 11.5664,0 0,-7.41992 1.78125,0 0,17.7832 -1.78125,0 0,-8.66797 -11.5664,0 0,8.66797 -1.7793,0 0,-17.7832 z m 19.45508,0 1.7793,0 0,17.7832 -1.7793,0 0,-17.7832 z m 4.03906,0 15.51172,0 0,1.63477 -6.86523,0 0,16.14843 -1.7793,0 0,-16.14843 -6.86719,0 0,-1.63477 z m 17.67578,0 13.67188,0 0,1.66016 -11.89258,0 0,6.22851 10.97852,0 0,1.66992 -10.97852,0 0,6.55469 11.89258,0 0,1.66992 -13.67188,0 0,-17.7832 z m 34.84571,0 15.50976,0 0,1.63477 -6.86523,0 0,16.14843 -1.7793,0 0,-16.14843 -6.86523,0 0,-1.63477 z m 17.69921,0 1.80274,0 0,10.91797 c 0,1.93986 0.47774,3.36178 1.43164,4.26758 0.9539,0.89778 2.45203,1.34765 4.49609,1.34765 2.05208,0 3.55957,-0.45357 4.52149,-1.35937 0.96192,-0.9058 1.44336,-2.32401 1.44336,-4.25586 l 0,-10.91797 1.79101,0 0,11.38672 c 0,2.21241 -0.66914,3.9113 -2.00781,5.09766 -1.33065,1.17834 -3.24707,1.76757 -5.74805,1.76757 -2.52502,0 -4.44515,-0.58923 -5.75976,-1.76757 -1.31462,-1.17835 -1.97071,-2.90512 -1.97071,-5.18165 l 0,-11.30273 z m 19.69532,0 8.52539,0 c 2.1162,0 3.70731,0.40153 4.77343,1.20313 1.06613,0.80159 1.59766,1.99487 1.59766,3.58203 0,1.17834 -0.24715,2.12447 -0.74414,2.83789 -0.48897,0.7054 -1.26786,1.23519 -2.33398,1.58789 0.9058,0.14428 1.55273,0.44543 1.9375,0.90234 0.39278,0.45691 0.6567,1.28218 0.79296,2.47656 0.0561,0.45691 0.11188,1.08883 0.16797,1.89844 0.11222,1.7074 0.34456,2.80595 0.69727,3.29492 l -2.06836,0 c -0.22445,-0.68135 -0.37317,-1.63118 -0.44531,-2.84961 -0.0722,-1.22644 -0.12789,-2.00708 -0.16797,-2.34375 -0.11222,-0.88176 -0.43189,-1.50822 -0.96094,-1.87695 -0.52104,-0.37675 -1.35938,-0.56445 -2.51367,-0.56445 l -7.47852,0 0,7.63476 -1.77929,0 0,-17.7832 z m 18.66015,0 13.67188,0 0,1.66016 -11.89258,0 0,6.22851 10.97852,0 0,1.66992 -10.97852,0 0,6.55469 11.89258,0 0,1.66992 -13.67188,0 0,-17.7832 z m -182.13867,1.47852 -4.08789,9.09179 8.15234,0 -4.06445,-9.09179 z m 13.22656,0.18164 0,6.8164 6.54102,0 c 1.69939,0 2.92249,-0.26762 3.66797,-0.80468 0.74548,-0.53707 1.11719,-1.41068 1.11719,-2.6211 0,-1.22644 -0.37171,-2.09635 -1.11719,-2.60937 -0.74548,-0.52104 -2.04109,-0.78125 -3.88477,-0.78125 l -6.32422,0 z m 152.03125,0 0,6.8164 6.54102,0 c 1.69938,0 2.92248,-0.26762 3.66797,-0.80468 0.74548,-0.53707 1.11719,-1.41068 1.11719,-2.6211 0,-1.22644 -0.37171,-2.09635 -1.11719,-2.60937 -0.74549,-0.52104 -2.0411,-0.78125 -3.88477,-0.78125 l -6.32422,0 z"
       id="path8050-8"
       inkscape:connector-curvature="0" />
    <path
       style="fill:none;stroke:none;stroke-width:0.01556373px;stroke-linecap:round;stroke-linejoin:round;stroke-miterlimit:4;stroke-dasharray:none;stroke-opacity:1"
       d="m 320.10812,427.87128 152.42503,0 0,97.88599 -259.35502,0 0,-97.88599 79.08101,0"
       id="path8584"
       inkscape:connector-curvature="0" />
    <path
       style="fill:none;stroke:none;stroke-width:0.01556373px;stroke-linecap:round;stroke-linejoin:round;stroke-miterlimit:4;stroke-dasharray:none;stroke-opacity:1"
       d="M 247.86615,525.75727 297.88414,415.46328"
       id="path8586"
       inkscape:connector-curvature="0" />
    <path
       style="fill:none;stroke:none;stroke-width:0.01556373px;stroke-linecap:round;stroke-linejoin:round;stroke-miterlimit:4;stroke-dasharray:none;stroke-opacity:1"
       d="m 250.56813,427.87128 93.86001,97.88599"
       id="path8588"
       inkscape:connector-curvature="0" />
    <path
       style="fill:none;stroke:none;stroke-width:0.01556373px;stroke-linecap:round;stroke-linejoin:round;stroke-miterlimit:4;stroke-dasharray:none;stroke-opacity:1"
       d="m 384.90613,525.75727 -15.165,-97.88599"
       id="path8590"
       inkscape:connector-curvature="0" />
    <path
       style="fill:none;stroke:none;stroke-width:0.01556373px;stroke-linecap:round;stroke-linejoin:round;stroke-miterlimit:4;stroke-dasharray:none;stroke-opacity:1"
       d="m 396.59713,525.75727 41.85599,-97.88599"
       id="path8592"
       inkscape:connector-curvature="0" />
    <path
       style="fill:none;stroke:none;stroke-width:0.01556373px;stroke-linecap:round;stroke-linejoin:round;stroke-miterlimit:4;stroke-dasharray:none;stroke-opacity:1"
       d="m 297.88414,415.46328 174.64901,97.5"
       id="path8594"
       inkscape:connector-curvature="0" />
    <path
       style="fill:none;stroke:none;stroke-width:0.01556373px;stroke-linecap:round;stroke-linejoin:round;stroke-miterlimit:4;stroke-dasharray:none;stroke-opacity:1"
       d="m 242.79213,441.38228 0,42.133 6.83802,0 0,-18.97101 21.78297,0 0,-6.72799 -21.78297,0 0,-9.871 24.59597,0 0,-6.563 -31.43399,0 z"
       id="path8596"
       inkscape:connector-curvature="0" />
    <path
       style="fill:none;stroke:none;stroke-width:0.01556373px;stroke-linecap:round;stroke-linejoin:round;stroke-miterlimit:4;stroke-dasharray:none;stroke-opacity:1"
       d="m 297.93913,449.82028 6.39702,14.39301 -12.79403,0 6.39701,-14.39301 z"
       id="path8612"
       inkscape:connector-curvature="0" />
    <path
       style="fill:none;stroke:none;stroke-width:0.01556373px;stroke-linecap:round;stroke-linejoin:round;stroke-miterlimit:4;stroke-dasharray:none;stroke-opacity:1"
       d="m 295.23715,441.38228 -19.08103,42.133 6.89301,0 5.791,-12.62899 18.198,0 5.73602,12.62899 6.83798,0 -18.91499,-42.133 -5.45999,0 z"
       id="path8614"
       inkscape:connector-curvature="0" />
    <path
       style="fill:none;stroke:none;stroke-width:0.01556373px;stroke-linecap:round;stroke-linejoin:round;stroke-miterlimit:4;stroke-dasharray:none;stroke-opacity:1"
       d="m 371.56112,441.38228 0,42.133 32.70203,0 0,-6.56299 -25.86402,0 0,-12.40802 23.71302,0 0,-6.56199 -23.71302,0 0,-10.092 25.86402,0 0,-6.508 -32.70203,0 z"
       id="path8616"
       inkscape:connector-curvature="0" />
    <path
       style="fill:none;stroke:none;stroke-width:0.01556373px;stroke-linecap:round;stroke-linejoin:round;stroke-miterlimit:4;stroke-dasharray:none;stroke-opacity:1"
       d="m 411.10315,441.38228 0,6.453 15.04998,0 0,35.68 6.84,0 0,-35.68 15.06002,0 0,-6.453 -36.95,0 z"
       id="path8618"
       inkscape:connector-curvature="0" />
    <path
       style="fill:none;stroke:none;stroke-width:0.01556373px;stroke-linecap:round;stroke-linejoin:round;stroke-miterlimit:4;stroke-dasharray:none;stroke-opacity:1"
       d="m 344.70413,447.00728 1.87501,0.055 2.53701,0.44201 2.26098,0.71699 1.93,1.158 0.82701,0.661 1.48901,1.71 1.15798,2.04001 1.21302,3.74999 6.728,0 -0.99202,-4.57699 -0.93799,-2.59201 -1.21301,-2.316 -1.59899,-2.04 -1.931,-1.71 -0.38601,-0.33101 -2.15,-1.323 -2.372,-1.048 -2.592,-0.717 -2.812,-0.441 -2.97801,-0.166 -4.68698,0.33101 -2.70301,0.607 -2.53598,0.827 -2.26102,1.158 -2.09601,1.379 -1.87498,1.654 -0.99301,1.103 -1.544,1.985 -1.21301,2.206 -0.93799,2.427 -0.71599,2.647 -0.38601,2.812 -0.16618,3.034 0.0549,1.54402 0.27602,2.86699 0.55099,2.75801 0.828,2.53598 1.10299,2.317 1.37803,2.15001 1.65497,1.93 0.66101,0.662 2.04101,1.65501 2.151,1.323 2.37101,1.048 2.592,0.77198 2.75697,0.441 2.92302,0.16583 1.489,-0.056 2.81201,-0.27496 2.70297,-0.607 2.48103,-0.93699 2.26098,-1.21401 2.20599,-1.48901 1.15803,-1.04701 1.71,-1.87497 1.43397,-2.151 1.21302,-2.42703 0.93699,-2.64699 0.99301,-4.46701 -6.893,0 -0.38601,1.21401 -0.828,2.70202 -1.04698,2.151 -1.37902,1.87497 -1.76499,1.65402 -1.985,1.26801 -2.151,0.88299 -2.42599,0.55098 -2.64703,0.16618 -2.09597,-0.1109 -2.426,-0.441 -2.26102,-0.82698 -1.93099,-1.15802 -1.70901,-1.54399 -1.37899,-1.71 -1.048,-2.03999 -0.82701,-2.26102 -0.441,-2.53698 -0.2211,-2.86802 0,-0.055 0.2211,-2.867 0.49599,-2.537 0.77202,-2.206 1.103,-1.93 1.43401,-1.765 1.71,-1.434 1.93,-1.103 2.20599,-0.827 2.48099,-0.496 2.813,-0.166 z"
       id="path8620"
       inkscape:connector-curvature="0" />
    <path
       style="fill:none;stroke:none;stroke-width:0.01556373px;stroke-linecap:round;stroke-linejoin:round;stroke-miterlimit:4;stroke-dasharray:none;stroke-opacity:1"
       d="m 242.79213,441.38228 0,42.133 6.83802,0 0,-18.97101 21.78297,0 0,-6.72799 -21.78297,0 0,-9.871 24.59597,0 0,-6.563 -31.43399,0 z"
       id="path8622"
       inkscape:connector-curvature="0" />
    <path
       style="fill:none;stroke:none;stroke-width:0.01556373px;stroke-linecap:round;stroke-linejoin:round;stroke-miterlimit:4;stroke-dasharray:none;stroke-opacity:1"
       d="m 297.93913,449.82028 6.39702,14.39301 -12.79403,0 6.39701,-14.39301 z"
       id="path8624"
       inkscape:connector-curvature="0" />
    <path
       style="fill:none;stroke:none;stroke-width:0.01556373px;stroke-linecap:round;stroke-linejoin:round;stroke-miterlimit:4;stroke-dasharray:none;stroke-opacity:1"
       d="m 295.23715,441.38228 -19.08103,42.133 6.89301,0 5.791,-12.62899 18.198,0 5.73602,12.62899 6.83798,0 -18.91499,-42.133 -5.45999,0 z"
       id="path8626"
       inkscape:connector-curvature="0" />
    <path
       style="fill:none;stroke:none;stroke-width:0.01556373px;stroke-linecap:round;stroke-linejoin:round;stroke-miterlimit:4;stroke-dasharray:none;stroke-opacity:1"
       d="m 371.56112,441.38228 0,42.133 32.70203,0 0,-6.56299 -25.86402,0 0,-12.40802 23.71302,0 0,-6.56199 -23.71302,0 0,-10.092 25.86402,0 0,-6.508 -32.70203,0 z"
       id="path8628"
       inkscape:connector-curvature="0" />
    <path
       style="fill:none;stroke:none;stroke-width:0.01556373px;stroke-linecap:round;stroke-linejoin:round;stroke-miterlimit:4;stroke-dasharray:none;stroke-opacity:1"
       d="m 411.10315,441.38228 0,6.453 15.04998,0 0,35.68 6.84,0 0,-35.68 15.06002,0 0,-6.453 -36.95,0 z"
       id="path8630"
       inkscape:connector-curvature="0" />
  </g>
  <g
     inkscape:groupmode="layer"
     id="layer5"
     inkscape:label="Layer 3"
     transform="translate(-213.17773,-415.46289)" />
</svg>
