<?xml version="1.0" encoding="UTF-8" standalone="no"?>
<!-- Created with Inkscape (http://www.inkscape.org/) -->

<svg
   xmlns:dc="http://purl.org/dc/elements/1.1/"
   xmlns:cc="http://creativecommons.org/ns#"
   xmlns:rdf="http://www.w3.org/1999/02/22-rdf-syntax-ns#"
   xmlns:svg="http://www.w3.org/2000/svg"
   xmlns="http://www.w3.org/2000/svg"
   xmlns:sodipodi="http://sodipodi.sourceforge.net/DTD/sodipodi-0.dtd"
   xmlns:inkscape="http://www.inkscape.org/namespaces/inkscape"
   width="169.33333mm"
   height="72.01162mm"
   viewBox="0 0 599.99998 255.15928"
   id="svg7497"
   version="1.1"
   inkscape:version="0.91 r13725"
   sodipodi:docname="inverted_lgt.svg">
  <defs
     id="defs7499">
    <pattern
       y="0"
       x="0"
       height="6"
       width="6"
       patternUnits="userSpaceOnUse"
       id="WMFhbasepattern" />
  </defs>
  <sodipodi:namedview
     id="base"
     pagecolor="#ffffff"
     bordercolor="#666666"
     borderopacity="1.0"
     inkscape:pageopacity="0.0"
     inkscape:pageshadow="2"
     inkscape:zoom="0.70710678"
     inkscape:cx="-84.498335"
     inkscape:cy="0.67206758"
     inkscape:document-units="px"
     inkscape:current-layer="layer4"
     showgrid="false"
     inkscape:window-width="1849"
     inkscape:window-height="1057"
     inkscape:window-x="1912"
     inkscape:window-y="-8"
     inkscape:window-maximized="1"
     fit-margin-top="0"
     fit-margin-left="0"
     fit-margin-right="0"
     fit-margin-bottom="0" />
  <metadata
     id="metadata7502">
    <rdf:RDF>
      <cc:Work
         rdf:about="">
        <dc:format>image/svg+xml</dc:format>
        <dc:type
           rdf:resource="http://purl.org/dc/dcmitype/StillImage" />
        <dc:title></dc:title>
      </cc:Work>
    </rdf:RDF>
  </metadata>
  <g
     inkscape:label="Layer 1"
     inkscape:groupmode="layer"
     id="layer1"
     transform="translate(-213.17773,-270.59854)" />
  <g
     inkscape:groupmode="layer"
     id="layer4"
     inkscape:label="Layer 2"
     transform="translate(-213.17773,-270.59854)">
    <path
       style="fill:#f9f9f9;fill-opacity:1;fill-rule:evenodd;stroke:none"
       d="m 409.1413,270.59854 -13.01303,28.70547 -96.45004,0 -86.5005,0 0,31.25838 0,97.47119 0,97.72423 c 208.16514,-0.50384 429.3602,-0.0252 600,0 l 0,-29.60012 0,-68.12411 0,-82.54234 0,-14.92885 0,-31.25838 -78.84178,0 -158.96227,0 -114.8219,0 c -51.41083,-28.70535 -1.1e-4,1.1e-4 -51.41048,-28.70547 z m 108.4419,57.41096 6.88606,0.38405 6.50651,1.02117 4.21115,1.14767 1.78477,0.5106 5.48988,2.42185 4.97477,3.06349 0.89013,0.63709 4.46871,4.08464 3.70058,4.71724 2.80594,5.35882 1.40071,3.8271 0.63709,1.7893 0.13557,0.37954 1.78478,8.42233 0.51058,2.16884 -15.56594,0 -0.37954,-1.40524 -1.66278,-5.10127 -0.76362,-2.16884 -1.27419,-2.29536 -1.40522,-2.42639 -1.27419,-1.65827 -2.16883,-2.29533 -1.1477,-1.02117 -0.76812,-0.51058 -3.56955,-2.04233 -0.89463,-0.6371 -4.08465,-1.27419 -1.14767,-0.38405 -4.84827,-0.76362 -1.01664,-0.25755 -4.33768,-0.12655 -3.83161,0.12655 -2.67941,0.25755 -3.8271,0.76362 -1.91129,0.38405 -3.57406,1.27419 -1.52723,0.6371 -3.44754,2.04233 -1.02117,0.51058 -1.14767,1.02117 -2.80593,2.29533 -1.27421,1.65827 -2.04232,2.42639 -1.27419,2.29536 -1.2787,2.16884 -1.78478,5.10127 -0.25756,1.40524 -0.89011,4.46418 -0.51058,6.63303 0,0.12655 0.51058,6.63754 0,0.37954 0.51057,2.81045 0.50606,2.67943 1.27873,3.56955 0.63709,1.65824 1.78476,3.32104 0.6371,1.40071 2.42639,2.93697 0.76813,1.01663 3.05897,2.80594 0.89465,0.76815 3.57406,2.16884 0.89012,0.51057 4.21117,1.53174 1.02115,0.37954 4.84374,0.89465 0.76813,0.12655 4.84827,0.25753 3.70058,-0.25753 2.42186,-0.12655 3.95362,-0.89465 1.65824,-0.37954 3.70058,-1.53174 1.27873,-0.51057 3.44303,-2.16884 1.14766,-0.76815 3.06349,-2.80594 1.02117,-1.01663 2.16884,-2.93697 1.02114,-1.40071 1.65827,-3.32104 0.76362,-1.65824 1.14766,-3.56955 0.76813,-2.67943 0.89014,-2.81045 15.94999,0 -2.29987,10.33362 -2.16433,6.12697 -2.81044,5.61187 -3.31653,4.97928 -3.9536,4.33768 -2.67941,2.42188 -5.1058,3.44302 -5.22782,2.81045 -4.84825,1.78476 -0.89465,0.37957 -6.24896,1.40522 -6.50651,0.63709 -3.44756,0.13094 -1.65827,-0.13094 -5.10127,-0.25304 -6.38001,-1.02115 -3.82708,-1.14769 -2.16884,-0.63709 -5.48537,-2.42637 -4.97477,-3.05898 -4.72172,-3.83161 -1.53175,-1.53174 -3.8271,-4.4642 -3.18547,-4.97477 -2.55292,-5.35883 -1.91579,-5.8649 -1.27419,-6.38451 -0.64163,-6.62852 -0.13094,-3.57406 0.38407,-7.01709 0.89465,-6.50651 1.65824,-6.12246 2.16884,-5.61638 2.80593,-5.10129 3.56955,-4.59523 2.29987,-2.55289 4.33768,-3.82259 4.84827,-3.19001 5.2323,-2.67941 4.59072,-1.53175 1.27419,-0.38405 6.2535,-1.40522 5.1058,-0.49704 0.52864,-0.0139 1.12509,-0.12192 4.08466,-0.13094 z m 62.25921,0.10387 0.11752,0.74553 -0.11752,-0.46539 0,-0.28014 z m -298.15198,2.44897 47.96746,0 24.75186,0 0,15.18187 -10.20709,0 -46.69327,0 0,21.94142 0,0.89465 50.39385,0 0,15.56592 -50.39385,0 0,43.88733 -15.81896,0 0,-97.47119 z m 121.3239,0 12.63348,0 0.6371,1.53175 1.27419,2.67941 1.40522,3.19001 1.78476,3.82259 1.02117,2.55289 2.16884,4.59523 2.16884,5.10129 2.55291,5.61638 2.80594,6.12246 2.93243,6.50651 3.06348,7.01709 1.65827,3.57406 2.93245,6.62852 2.93697,6.38451 2.54838,5.86491 2.42639,5.35882 2.16884,4.97477 2.04231,4.4642 0.76362,1.53174 1.65826,3.83161 1.40522,3.05898 1.02117,2.42637 0.37955,0.63709 -15.81897,0 -13.26607,-29.21604 -35.3385,0 -6.76407,0 -13.39708,29.21604 -15.94548,0 20.54071,-45.5456 1.53175,-3.18998 5.2323,-11.61232 16.83562,-37.12329 z m 176.57052,0 0.6371,0 75.01919,0 0,14.92885 0,0.12654 -59.83732,0 0,20.15666 0,3.18999 54.85804,0 0,15.18186 -37.76038,0 -17.09766,0 0,28.70547 59.83732,0 0,9.82305 0,5.35882 -59.96385,0 -15.69244,0 0,-1.78476 0,-2.81045 0,-3.44303 0,-2.42188 0,-4.33767 0,-4.97928 0,-5.61187 0,-6.12697 0,-10.33362 0,-0.37954 0,-6.63755 0,-0.12654 0,-6.63304 0,-4.46417 0,-2.16884 0,-10.59117 0,-3.8271 0,-5.35882 0,-4.71724 0,-4.08464 0,-0.63709 0,-3.06349 0,-2.42186 0,-0.51059 z m 91.47979,0 49.87874,0 35.60056,0 0,14.92885 -34.84146,0 0,82.54234 -15.82349,0 0,-5.35882 0,-56.90036 -1.39618,3.26228 0.009,-0.0722 1.38716,-3.18999 0,-20.15666 0,-0.12654 -34.81435,0 0,-14.92885 z m -261.79684,19.51955 -14.79779,33.29618 29.5956,0 -14.79781,-33.29618 z m -17.3281,102.19294 c 5.30367,0 9.64248,1.2901 13.01754,3.86777 3.37508,2.57764 5.39611,6.13815 6.06372,10.68151 l -4.17051,0 c -0.79741,-3.37506 -2.49605,-5.97239 -5.09224,-7.78973 -2.5962,-1.83589 -5.89024,-2.75173 -9.87725,-2.75173 -5.39639,0 -9.64049,1.57373 -12.73741,4.72627 -3.09689,3.13397 -4.64492,7.4471 -4.64492,12.93622 0,5.35931 1.50067,9.63364 4.50484,12.82326 3.0042,3.18961 7.02915,4.785 12.0732,4.785 4.15392,0 7.68421,-1.12236 10.59568,-3.36623 2.93001,-2.26241 4.81353,-5.30253 5.64803,-9.12267 l 4.3693,0 c -0.94578,5.08114 -3.25497,9.10158 -6.92673,12.06868 -3.67177,2.96709 -8.19545,4.45062 -13.57331,4.45062 -6.32362,0 -11.38933,-1.96512 -15.19091,-5.89651 -3.78304,-3.93139 -5.67512,-9.17748 -5.67512,-15.74215 0,-6.73159 1.9223,-12.02501 5.76097,-15.88224 3.83867,-3.85722 9.12353,-5.78807 15.85512,-5.78807 z m 180.58286,0 c 5.3037,0 9.64251,1.2901 13.01757,3.86777 3.37505,2.57764 5.39611,6.13815 6.0637,10.68151 l -4.17051,0 c -0.79739,-3.37506 -2.49603,-5.97239 -5.09225,-7.78973 -2.5962,-1.83589 -5.8857,-2.75173 -9.87271,-2.75173 -5.39642,0 -9.64505,1.57373 -12.74194,4.72627 -3.09689,3.13397 -4.64492,7.4471 -4.64492,12.93622 0,5.35931 1.50518,9.63364 4.50937,12.82326 3.00418,3.18961 7.02463,4.785 12.06869,4.785 4.15392,0 7.68872,-1.12236 10.60019,-3.36623 2.93001,-2.26241 4.81353,-5.30253 5.64801,-9.12267 l 4.36479,0 c -0.94576,5.08114 -3.25495,9.10158 -6.92673,12.06868 -3.67176,2.96709 -8.19545,4.45062 -13.57332,4.45062 -6.32361,0 -11.38479,-1.96512 -15.18637,-5.89651 -3.78304,-3.93139 -5.67512,-9.17748 -5.67512,-15.74215 0,-6.73159 1.91776,-12.02501 5.75646,-15.88224 3.83867,-3.85722 9.12353,-5.78807 15.85509,-5.78807 z m -272.18463,1.08441 4.73077,0 18.74688,41.14014 -4.14337,0 -5.75645,-12.71029 -22.50623,0 -5.81519,12.71029 -4.22471,0 18.9683,-41.14014 z m 28.81843,0 19.72287,0 c 4.8957,0 8.57661,0.92891 11.043,2.78336 2.4664,1.85442 3.70056,4.61498 3.70056,8.28676 0,2.72601 -0.57627,4.91481 -1.72602,6.56526 -1.1312,1.63189 -2.92859,2.85752 -5.39498,3.67346 2.0955,0.33378 3.58761,1.03047 4.47775,2.0875 0.90867,1.05703 1.5192,2.96623 1.83448,5.72934 0.12978,1.05703 0.25882,2.51893 0.38856,4.39191 0.25964,3.94994 0.79714,6.49136 1.61309,7.62255 l -4.78049,0 c -0.51923,-1.57625 -0.86331,-3.77361 -1.0302,-6.59236 -0.16703,-2.83728 -0.29586,-4.64324 -0.38858,-5.4221 -0.25962,-2.03988 -1.00366,-3.48915 -2.22758,-4.34218 -1.20539,-0.87159 -3.14482,-1.30582 -5.81519,-1.30582 l -17.30101,0 0,17.66246 -4.11626,0 0,-41.14014 z m 89.34708,0 4.11628,0 0,17.16545 26.75803,0 0,-17.16545 4.12079,0 0,41.14014 -4.12079,0 0,-20.05271 -26.75803,0 0,20.05271 -4.11628,0 0,-41.14014 z m 45.00791,0 4.11628,0 0,41.14014 -4.11628,0 0,-41.14014 z m 9.34407,0 35.88524,0 0,3.78193 -15.88221,0 0,37.35821 -4.11628,0 0,-37.35821 -15.88675,0 0,-3.78193 z m 40.89163,0 31.6289,0 0,3.84066 -27.51262,0 0,14.40921 25.39801,0 0,3.86324 -25.39801,0 0,15.16379 27.51262,0 0,3.86324 -31.6289,0 0,-41.14014 z m 80.61302,0 35.8807,0 0,3.78193 -15.88221,0 0,37.35821 -4.11628,0 0,-37.35821 -15.88221,0 0,-3.78193 z m 40.94583,0 4.17051,0 0,25.25793 c 0,4.48773 1.10521,7.77724 3.31199,9.87274 2.20678,2.07695 5.6726,3.11769 10.40138,3.11769 4.74734,0 8.23481,-1.0493 10.46014,-3.1448 2.22533,-2.09551 3.33911,-5.37643 3.33911,-9.84563 l 0,-25.25793 4.14337,0 0,26.34235 c 0,5.11825 -1.54801,9.04851 -4.64492,11.79307 -3.07837,2.726 -7.51186,4.08914 -13.2977,4.08914 -5.84145,0 -10.28353,-1.36314 -13.32479,-4.08914 -3.04127,-2.72603 -4.55909,-6.72079 -4.55909,-11.98737 l 0,-26.14805 z m 45.56369,0 19.72287,0 c 4.89567,0 8.57659,0.92891 11.04298,2.78336 2.46642,1.85442 3.69607,4.61498 3.69607,8.28676 0,2.72601 -0.57176,4.91481 -1.72151,6.56526 -1.1312,1.63189 -2.9331,2.85752 -5.3995,3.67346 2.09551,0.33378 3.59213,1.03047 4.48227,2.0875 0.90867,1.05703 1.51923,2.96623 1.83446,5.72934 0.12978,1.05703 0.25882,2.51893 0.38858,4.39191 0.25961,3.94994 0.79712,6.49136 1.61309,7.62255 l -4.78501,0 c -0.51924,-1.57625 -0.8633,-3.77361 -1.03019,-6.59236 -0.16703,-2.83728 -0.29586,-4.64324 -0.38858,-5.4221 -0.25962,-2.03988 -0.99915,-3.48915 -2.22307,-4.34218 -1.20539,-0.87159 -3.14483,-1.30582 -5.81519,-1.30582 l -17.30101,0 0,17.66246 -4.11626,0 0,-41.14014 z m 43.1689,0 31.6289,0 0,3.84066 -27.51262,0 0,14.40921 25.39801,0 0,3.86324 -25.39801,0 0,15.16379 27.51262,0 0,3.86324 -31.6289,0 0,-41.14014 z m -421.36456,3.42045 -9.45703,21.0332 18.85984,0 -9.40281,-21.0332 z m 30.59869,0.42021 0,15.76925 15.13217,0 c 3.93142,0 6.76097,-0.61912 8.48558,-1.86157 1.72462,-1.24247 2.58454,-3.26351 2.58454,-6.06372 0,-2.83728 -0.85992,-4.84976 -2.58454,-6.03659 -1.72461,-1.20539 -4.72191,-1.80737 -8.98713,-1.80737 l -14.63062,0 z m 351.71323,0 0,15.76925 15.13217,0 c 3.93139,0 6.76095,-0.61912 8.48558,-1.86157 1.72462,-1.24247 2.58454,-3.26351 2.58454,-6.06372 0,-2.83728 -0.85992,-4.84976 -2.58454,-6.03659 -1.72463,-1.20539 -4.72193,-1.80737 -8.98713,-1.80737 l -14.63062,0 z"
       id="path8050-8"
       inkscape:connector-curvature="0" />
    <path
       style="fill:none;stroke:none;stroke-width:0.01556373px;stroke-linecap:round;stroke-linejoin:round;stroke-miterlimit:4;stroke-dasharray:none;stroke-opacity:1"
       d="m 460.5534,299.30445 352.62421,0 0,226.45211 -599.99895,0 0,-226.45211 182.94816,0"
       id="path8584"
       inkscape:connector-curvature="0" />
    <path
       style="fill:none;stroke:none;stroke-width:0.01556373px;stroke-linecap:round;stroke-linejoin:round;stroke-miterlimit:4;stroke-dasharray:none;stroke-opacity:1"
       d="M 293.42686,525.75656 409.13984,270.59944"
       id="path8586"
       inkscape:connector-curvature="0" />
    <path
       style="fill:none;stroke:none;stroke-width:0.01556373px;stroke-linecap:round;stroke-linejoin:round;stroke-miterlimit:4;stroke-dasharray:none;stroke-opacity:1"
       d="M 299.6777,299.30445 516.816,525.75656"
       id="path8588"
       inkscape:connector-curvature="0" />
    <path
       style="fill:none;stroke:none;stroke-width:0.01556373px;stroke-linecap:round;stroke-linejoin:round;stroke-miterlimit:4;stroke-dasharray:none;stroke-opacity:1"
       d="M 610.45888,525.75656 575.37576,299.30445"
       id="path8590"
       inkscape:connector-curvature="0" />
    <path
       style="fill:none;stroke:none;stroke-width:0.01556373px;stroke-linecap:round;stroke-linejoin:round;stroke-miterlimit:4;stroke-dasharray:none;stroke-opacity:1"
       d="M 637.50516,525.75656 734.33595,299.30445"
       id="path8592"
       inkscape:connector-curvature="0" />
    <path
       style="fill:none;stroke:none;stroke-width:0.01556373px;stroke-linecap:round;stroke-linejoin:round;stroke-miterlimit:4;stroke-dasharray:none;stroke-opacity:1"
       d="M 409.13984,270.59944 813.17761,496.1586"
       id="path8594"
       inkscape:connector-curvature="0" />
    <path
       style="fill:none;stroke:none;stroke-width:0.01556373px;stroke-linecap:round;stroke-linejoin:round;stroke-miterlimit:4;stroke-dasharray:none;stroke-opacity:1"
       d="m 281.68849,330.56116 0,97.47163 15.81926,0 0,-43.88805 50.39332,0 0,-15.56471 -50.39332,0 0,-22.83584 56.90099,0 0,-15.18303 -72.72025,0 z"
       id="path8596"
       inkscape:connector-curvature="0" />
    <path
       style="fill:none;stroke:none;stroke-width:0.01556373px;stroke-linecap:round;stroke-linejoin:round;stroke-miterlimit:4;stroke-dasharray:none;stroke-opacity:1"
       d="m 409.26706,350.08186 14.79904,33.29718 -29.59806,0 14.79902,-33.29718 z"
       id="path8612"
       inkscape:connector-curvature="0" />
    <path
       style="fill:none;stroke:none;stroke-width:0.01556373px;stroke-linecap:round;stroke-linejoin:round;stroke-miterlimit:4;stroke-dasharray:none;stroke-opacity:1"
       d="m 403.01622,330.56116 -44.14257,97.47163 15.94648,0 13.39705,-29.21625 42.09975,0 13.26987,29.21625 15.81917,0 -43.75846,-97.47163 -12.63129,0 z"
       id="path8614"
       inkscape:connector-curvature="0" />
    <path
       style="fill:none;stroke:none;stroke-width:0.01556373px;stroke-linecap:round;stroke-linejoin:round;stroke-miterlimit:4;stroke-dasharray:none;stroke-opacity:1"
       d="m 579.58617,330.56116 0,97.47163 75.65377,0 0,-15.183 -59.83453,0 0,-28.70505 54.85835,0 0,-15.18068 -54.85835,0 0,-23.34711 59.83453,0 0,-15.05579 -75.65377,0 z"
       id="path8616"
       inkscape:connector-curvature="0" />
    <path
       style="fill:none;stroke:none;stroke-width:0.01556373px;stroke-linecap:round;stroke-linejoin:round;stroke-miterlimit:4;stroke-dasharray:none;stroke-opacity:1"
       d="m 671.06378,330.56116 0,14.92855 34.81703,0 0,82.54308 15.82385,0 0,-82.54308 34.84026,0 0,-14.92855 -85.48114,0 z"
       id="path8618"
       inkscape:connector-curvature="0" />
    <path
       style="fill:none;stroke:none;stroke-width:0.01556373px;stroke-linecap:round;stroke-linejoin:round;stroke-miterlimit:4;stroke-dasharray:none;stroke-opacity:1"
       d="m 517.45448,343.57419 4.3377,0.12724 5.86919,1.02256 5.23061,1.6587 4.46492,2.67895 1.91322,1.52918 3.44472,3.95596 2.6789,4.71941 2.80624,8.67533 15.56473,0 -2.29496,-10.58853 -2.16997,-5.99643 -2.80621,-5.3579 -3.69915,-4.71939 -4.46723,-3.95596 -0.893,-0.76577 -4.97387,-3.06066 -5.48745,-2.42447 -5.99641,-1.65873 -6.50535,-1.02022 -6.88941,-0.38403 -10.84299,0.76577 -6.25322,1.40425 -5.8668,1.9132 -5.23071,2.67895 -4.84896,3.19022 -4.33763,3.82641 -2.29726,2.55171 -3.57193,4.59215 -2.80621,5.10342 -2.16997,5.61469 -1.65639,6.12364 -0.89301,6.50536 -0.38445,7.01893 0.12701,3.57198 0.63855,6.63257 1.27468,6.38046 1.91552,5.86681 2.55168,5.36021 3.18798,4.97389 3.82865,4.46491 1.5292,1.53149 4.72173,3.82875 4.97618,3.06066 5.48516,2.42447 5.9964,1.78592 6.37805,1.02022 6.76219,0.38364 3.4447,-0.12955 6.50538,-0.6361 6.25312,-1.40425 5.73968,-2.16766 5.23062,-2.80853 5.10339,-3.44471 2.67902,-2.42218 3.95596,-4.33761 3.31739,-4.97618 2.80623,-5.61476 2.16766,-6.12362 2.29726,-10.3341 -15.94646,0 -0.893,2.80852 -1.91552,6.25093 -2.42211,4.97618 -3.19027,4.33761 -4.08317,3.82645 -4.59216,2.93345 -4.97618,2.04274 -5.61235,1.27465 -6.12371,0.38444 -4.84887,-0.25656 -5.61238,-1.02022 -5.2307,-1.91316 -4.46721,-2.67899 -3.95367,-3.57191 -3.19019,-3.95596 -2.42447,-4.71937 -1.91323,-5.2307 -1.02022,-5.86912 -0.5115,-6.63496 0,-0.12724 0.5115,-6.63259 1.14743,-5.86917 1.78602,-5.10342 2.55171,-4.46491 3.31747,-4.0832 3.95597,-3.31745 4.46491,-2.55171 5.1034,-1.91321 5.73959,-1.14746 6.50767,-0.38403 z"
       id="path8620"
       inkscape:connector-curvature="0" />
    <path
       style="fill:none;stroke:none;stroke-width:0.01556373px;stroke-linecap:round;stroke-linejoin:round;stroke-miterlimit:4;stroke-dasharray:none;stroke-opacity:1"
       d="m 281.68849,330.56116 0,97.47163 15.81926,0 0,-43.88805 50.39332,0 0,-15.56471 -50.39332,0 0,-22.83584 56.90099,0 0,-15.18303 -72.72025,0 z"
       id="path8622"
       inkscape:connector-curvature="0" />
    <path
       style="fill:none;stroke:none;stroke-width:0.01556373px;stroke-linecap:round;stroke-linejoin:round;stroke-miterlimit:4;stroke-dasharray:none;stroke-opacity:1"
       d="m 409.26706,350.08186 14.79904,33.29718 -29.59806,0 14.79902,-33.29718 z"
       id="path8624"
       inkscape:connector-curvature="0" />
    <path
       style="fill:none;stroke:none;stroke-width:0.01556373px;stroke-linecap:round;stroke-linejoin:round;stroke-miterlimit:4;stroke-dasharray:none;stroke-opacity:1"
       d="m 403.01622,330.56116 -44.14257,97.47163 15.94648,0 13.39705,-29.21625 42.09975,0 13.26987,29.21625 15.81917,0 -43.75846,-97.47163 -12.63129,0 z"
       id="path8626"
       inkscape:connector-curvature="0" />
    <path
       style="fill:none;stroke:none;stroke-width:0.01556373px;stroke-linecap:round;stroke-linejoin:round;stroke-miterlimit:4;stroke-dasharray:none;stroke-opacity:1"
       d="m 579.58617,330.56116 0,97.47163 75.65377,0 0,-15.183 -59.83453,0 0,-28.70505 54.85835,0 0,-15.18068 -54.85835,0 0,-23.34711 59.83453,0 0,-15.05579 -75.65377,0 z"
       id="path8628"
       inkscape:connector-curvature="0" />
    <path
       style="fill:none;stroke:none;stroke-width:0.01556373px;stroke-linecap:round;stroke-linejoin:round;stroke-miterlimit:4;stroke-dasharray:none;stroke-opacity:1"
       d="m 671.06378,330.56116 0,14.92855 34.81703,0 0,82.54308 15.82385,0 0,-82.54308 34.84026,0 0,-14.92855 -85.48114,0 z"
       id="path8630"
       inkscape:connector-curvature="0" />
  </g>
  <g
     inkscape:groupmode="layer"
     id="layer5"
     inkscape:label="Layer 3"
     transform="translate(-213.17773,-270.59854)" />
</svg>
