<?xml version="1.0" encoding="UTF-8" standalone="no"?>
<!-- Created with Inkscape (http://www.inkscape.org/) -->

<svg
   xmlns:dc="http://purl.org/dc/elements/1.1/"
   xmlns:cc="http://creativecommons.org/ns#"
   xmlns:rdf="http://www.w3.org/1999/02/22-rdf-syntax-ns#"
   xmlns:svg="http://www.w3.org/2000/svg"
   xmlns="http://www.w3.org/2000/svg"
   xmlns:sodipodi="http://sodipodi.sourceforge.net/DTD/sodipodi-0.dtd"
   xmlns:inkscape="http://www.inkscape.org/namespaces/inkscape"
   width="338.66666mm"
   height="144.02324mm"
   viewBox="0 0 1199.9999 510.31856"
   id="svg7497"
   version="1.1"
   inkscape:version="0.91 r13725"
   sodipodi:docname="inverted_drk.svg">
  <defs
     id="defs7499">
    <pattern
       y="0"
       x="0"
       height="6"
       width="6"
       patternUnits="userSpaceOnUse"
       id="WMFhbasepattern" />
  </defs>
  <sodipodi:namedview
     id="base"
     pagecolor="#ffffff"
     bordercolor="#666666"
     borderopacity="1.0"
     inkscape:pageopacity="0.0"
     inkscape:pageshadow="2"
     inkscape:zoom="0.5"
     inkscape:cx="152.99536"
     inkscape:cy="210.61147"
     inkscape:document-units="px"
     inkscape:current-layer="layer4"
     showgrid="false"
     inkscape:window-width="1849"
     inkscape:window-height="1057"
     inkscape:window-x="1912"
     inkscape:window-y="-8"
     inkscape:window-maximized="1"
     fit-margin-top="0"
     fit-margin-left="0"
     fit-margin-right="0"
     fit-margin-bottom="0" />
  <metadata
     id="metadata7502">
    <rdf:RDF>
      <cc:Work
         rdf:about="">
        <dc:format>image/svg+xml</dc:format>
        <dc:type
           rdf:resource="http://purl.org/dc/dcmitype/StillImage" />
        <dc:title></dc:title>
      </cc:Work>
    </rdf:RDF>
  </metadata>
  <g
     inkscape:label="Layer 1"
     inkscape:groupmode="layer"
     id="layer1"
     transform="translate(-213.17773,-15.43924)" />
  <g
     inkscape:groupmode="layer"
     id="layer4"
     inkscape:label="Layer 2"
     transform="translate(-213.17773,-15.43924)">
    <path
       style="fill:#1a1a1a;fill-opacity:1;fill-rule:evenodd;stroke:none"
       d="m 605.10489,15.43924 -26.02607,57.410942 -192.90008,0 -173.00101,0 0,62.516758 0,194.9424 0,195.44847 c 416.3303,-1.00768 858.72047,-0.0504 1199.99997,0 l 0,-59.20024 0,-136.24823 0,-165.08469 0,-29.85771 0,-62.516758 -157.6835,0 -317.92453,0 -229.64382,0 C 605.10419,15.43948 707.92564,72.850398 605.10489,15.43924 Z m 216.88381,114.82193 13.77212,0.7681 13.01302,2.04234 8.42231,2.29533 3.56953,1.0212 10.97976,4.84371 9.94955,6.12698 1.78026,1.27417 8.93742,8.16929 7.40116,9.43447 5.61188,10.71765 2.80141,7.6542 1.27419,3.5786 0.27114,0.75908 3.56955,16.84466 1.02117,4.33768 -31.13188,0 -0.75908,-2.81048 -3.32556,-10.20254 -1.52724,-4.33768 -2.54838,-4.59072 -2.81044,-4.85278 -2.54838,-3.31654 -4.33766,-4.59066 -2.2954,-2.04234 -1.53624,-1.02116 -7.1391,-4.08466 -1.78926,-1.2742 -8.1693,-2.54838 -2.29535,-0.76811 -9.69654,-1.52724 -2.03328,-0.5151 -8.67535,-0.25309 -7.66323,0.25309 -5.35881,0.5151 -7.6542,1.52724 -3.82259,0.76811 -7.14811,2.54838 -3.05447,1.2742 -6.89508,4.08466 -2.04234,1.02116 -2.29534,2.04234 -5.61186,4.59066 -2.54843,3.31654 -4.08463,4.85278 -2.54838,4.59072 -2.5574,4.33768 -3.56956,10.20254 -0.51512,2.81048 -1.78023,8.92836 -1.02115,13.26606 0,0.2531 1.02115,13.27509 0,0.75907 1.02114,5.62091 1.01213,5.35886 2.55745,7.1391 1.27419,3.31648 3.56952,6.64208 1.27419,2.80141 4.85279,5.87394 1.53625,2.03327 6.11795,5.61187 1.7893,1.5363 7.14812,4.33769 1.78024,1.02114 8.42234,3.06348 2.04231,0.75907 9.68748,1.78931 1.53625,0.25309 9.69654,0.51507 7.40117,-0.51507 4.84371,-0.25309 7.90725,-1.78931 3.31647,-0.75907 7.40116,-3.06348 2.55747,-1.02114 6.88605,-4.33769 2.29533,-1.5363 6.12698,-5.61187 2.04234,-2.03327 4.33768,-5.87394 2.04228,-2.80141 3.31653,-6.64208 1.52724,-3.31648 2.29533,-7.1391 1.53626,-5.35886 1.78027,-5.62091 31.89999,0 -4.59975,20.66725 -4.32865,12.25393 -5.62088,11.22375 -6.63306,9.95856 -7.9072,8.67536 -5.35883,4.84375 -10.21159,6.88605 -10.45565,5.62089 -9.69649,3.56952 -1.78931,0.75915 -12.49792,2.81043 -13.01301,1.27419 -6.89513,0.26187 -3.31654,-0.26187 -10.20254,-0.50608 -12.76002,-2.0423 -7.65415,-2.29539 -4.33769,-1.27417 -10.97074,-4.85274 -9.94955,-6.11796 -9.44343,-7.66322 -3.06351,-3.06348 -7.6542,-8.9284 -6.37093,-9.94955 -5.10584,-10.71765 -3.83158,-11.7298 -2.54838,-12.76902 -1.28327,-13.25705 -0.26187,-7.14812 0.76814,-14.03418 1.7893,-13.01302 3.31647,-12.24492 4.33769,-11.23276 5.61186,-10.20258 7.1391,-9.19046 4.59973,-5.10579 8.67537,-7.64517 9.69654,-6.38002 10.4646,-5.35883 9.18144,-3.06349 2.54838,-0.76811 12.507,-2.81043 10.2116,-0.99408 1.05729,-0.0278 2.25018,-0.24384 8.16931,-0.26188 z m 124.51844,0.20773 0.23503,1.49106 -0.23503,-0.93078 0,-0.56028 z m -596.304,4.89795 95.93492,0 49.50373,0 0,30.36374 -20.41418,0 -93.38655,0 0,43.88284 0,1.7893 100.7877,0 0,31.13184 -100.7877,0 0,87.77467 -31.63792,0 0,-194.94239 z m 242.64781,0 25.26696,0 1.27421,3.0635 2.54838,5.35882 2.81043,6.38001 3.56952,7.64519 2.04234,5.10577 4.33768,9.19047 4.33769,10.20258 5.10582,11.23276 5.61187,12.24492 5.86487,13.01302 6.12696,14.03418 3.31654,7.14812 5.8649,13.25705 5.87394,12.76902 5.09676,11.72982 4.85278,10.71764 4.33767,9.94954 4.08462,8.92839 1.52724,3.06348 3.31653,7.66323 2.81043,6.11796 2.04234,4.85274 0.75911,1.27418 -31.63794,0 -26.53214,-58.43208 -70.67701,0 -13.52814,0 -26.79416,58.43208 -31.89096,0 41.08142,-91.09121 3.06349,-6.37996 10.4646,-23.22464 33.67125,-74.24658 z m 353.14106,0 1.2742,0 150.03839,0 0,29.8577 0,0.25308 -119.67465,0 0,40.31332 0,6.37998 109.71615,0 0,30.36372 -75.5209,0 -34.19525,0 0,57.41094 119.67465,0 0,19.6461 0,10.71765 -119.9277,0 -31.38489,0 0,-3.56952 0,-5.6209 0,-6.88607 0,-4.84375 0,-8.67534 0,-9.95856 0,-11.22374 0,-12.25395 0,-20.66724 0,-0.75908 0,-13.2751 0,-0.25308 0,-13.26608 0,-8.92834 0,-4.33768 0,-21.18234 0,-7.6542 0,-10.71764 0,-9.43449 0,-8.16927 0,-1.27419 0,-6.12697 0,-4.84373 0,-1.02117 z m 182.95959,0 99.7574,0 71.2012,0 0,29.8577 -69.6829,0 0,165.08469 -31.6469,0 0,-10.71764 0,-113.80073 -2.7924,6.52456 0.018,-0.1444 2.7743,-6.37998 0,-40.31332 0,-0.25308 -69.6287,0 0,-29.85771 z m -523.59371,39.0391 -29.59558,66.59237 59.1912,0 -29.59562,-66.59237 z m -34.65621,204.38589 c 10.60735,0 19.28497,2.5802 26.03509,7.73554 6.75016,5.15528 10.79222,12.2763 12.12744,21.36302 l -8.34102,0 c -1.59482,-6.75012 -4.9921,-11.94478 -10.18448,-15.57946 -5.1924,-3.67178 -11.78048,-5.50346 -19.75451,-5.50346 -10.79277,0 -19.28097,3.14746 -25.47481,9.45254 -6.19379,6.26794 -9.28985,14.89421 -9.28985,25.87244 0,10.71862 3.00135,19.26729 9.00969,25.64653 6.0084,6.37922 14.0583,9.57 24.1464,9.57 8.30784,0 15.36842,-2.24472 21.19136,-6.73246 5.86002,-4.52483 9.62706,-10.60506 11.29606,-18.24534 l 8.7386,0 c -1.89156,10.16227 -6.50994,18.20316 -13.85346,24.13735 -7.34354,5.93418 -16.3909,8.90124 -27.14663,8.90124 -12.64723,0 -22.77865,-3.93024 -30.38181,-11.79301 -7.56609,-7.86278 -11.35024,-18.35496 -11.35024,-31.48431 0,-13.46318 3.8446,-24.05002 11.52193,-31.76448 7.67735,-7.71444 18.24707,-11.57614 31.71024,-11.57614 z m 361.16574,0 c 10.60742,0 19.28504,2.5802 26.03516,7.73554 6.75009,5.15528 10.79221,12.2763 12.12739,21.36302 l -8.34102,0 c -1.59478,-6.75012 -4.99206,-11.94478 -10.1845,-15.57946 -5.1924,-3.67178 -11.7714,-5.50346 -19.74542,-5.50346 -10.79284,0 -19.2901,3.14746 -25.48389,9.45254 -6.19377,6.26794 -9.28983,14.89421 -9.28983,25.87244 0,10.71862 3.01035,19.26729 9.01874,25.64653 6.00835,6.37922 14.04925,9.57 24.13738,9.57 8.30784,0 15.37745,-2.24472 21.20039,-6.73246 5.86002,-4.52483 9.62706,-10.60506 11.29602,-18.24534 l 8.72958,0 c -1.89153,10.16227 -6.50991,18.20316 -13.85346,24.13735 -7.34352,5.93418 -16.39091,8.90124 -27.14666,8.90124 -12.64722,0 -22.76958,-3.93024 -30.37273,-11.79301 -7.56608,-7.86278 -11.35025,-18.35496 -11.35025,-31.48431 0,-13.46318 3.83553,-24.05002 11.51292,-31.76448 7.67735,-7.71444 18.24707,-11.57614 31.71018,-11.57614 z m -544.36928,2.16882 9.46154,0 37.49376,82.28029 -8.28674,0 -11.5129,-25.42058 -45.01246,0 -11.63039,25.42058 -8.44941,0 37.9366,-82.28029 z m 57.63686,0 39.44574,0 c 9.7914,0 17.15322,1.85782 22.086,5.56672 4.93281,3.70884 7.40112,9.22996 7.40112,16.57352 0,5.45202 -1.15254,9.82963 -3.45204,13.13053 -2.26239,3.26377 -5.85717,5.71503 -10.78995,7.34691 4.191,0.66756 7.17522,2.06094 8.9555,4.17501 1.81734,2.11405 3.0384,5.93245 3.66895,11.45868 0.25956,2.11405 0.51765,5.03785 0.77712,8.78382 0.51929,7.89988 1.59429,12.98272 3.22619,15.2451 l -9.56099,0 c -1.03845,-3.15251 -1.72662,-7.54722 -2.0604,-13.18472 -0.33405,-5.67456 -0.59172,-9.28648 -0.77715,-10.8442 -0.51924,-4.07976 -2.00733,-6.9783 -4.45516,-8.68437 -2.41079,-1.74318 -6.28964,-2.61164 -11.63039,-2.61164 l -34.60201,0 0,35.32493 -8.23253,0 0,-82.28029 z m 178.69418,0 8.23255,0 0,34.3309 53.51607,0 0,-34.3309 8.24157,0 0,82.28029 -8.24157,0 0,-40.10543 -53.51607,0 0,40.10543 -8.23255,0 0,-82.28029 z m 90.01582,0 8.23256,0 0,82.28029 -8.23256,0 0,-82.28029 z m 18.68814,0 71.77049,0 0,7.56386 -31.76444,0 0,74.71643 -8.23255,0 0,-74.71643 -31.7735,0 0,-7.56386 z m 81.78326,0 63.2578,0 0,7.68132 -55.02523,0 0,28.81843 50.79601,0 0,7.72647 -50.79601,0 0,30.32758 55.02523,0 0,7.72649 -63.2578,0 0,-82.28029 z m 161.22606,0 71.76144,0 0,7.56386 -31.7645,0 0,74.71643 -8.2326,0 0,-74.71643 -31.76434,0 0,-7.56386 z m 81.89164,0 8.3411,0 0,50.51587 c 0,8.97546 2.2104,15.55447 6.624,19.74547 4.4134,4.15391 11.3451,6.23538 20.8026,6.23538 9.4947,0 16.4697,-2.09859 20.9203,-6.28959 4.4507,-4.19103 6.6782,-10.75287 6.6782,-19.69126 l 0,-50.51587 8.2869,0 0,52.6847 c 0,10.23651 -3.096,18.09702 -9.29,23.58615 -6.1567,5.45199 -15.0237,8.17827 -26.5954,8.17827 -11.6829,0 -20.567,-2.72628 -26.6495,-8.17827 -6.0826,-5.45206 -9.1182,-13.44159 -9.1182,-23.97475 l 0,-52.2961 z m 91.1274,0 39.4457,0 c 9.7914,0 17.1533,1.85782 22.086,5.56672 4.9328,3.70884 7.3921,9.22996 7.3921,16.57352 0,5.45202 -1.1435,9.82963 -3.4429,13.13053 -2.2625,3.26377 -5.8662,5.71503 -10.799,7.34691 4.191,0.66756 7.1841,2.06094 8.9644,4.17501 1.8174,2.11405 3.0386,5.93245 3.6689,11.45868 0.2597,2.11405 0.5177,5.03785 0.7773,8.78382 0.5192,7.89988 1.5942,12.98272 3.2262,15.2451 l -9.57,0 c -1.0385,-3.15251 -1.7266,-7.54722 -2.0604,-13.18472 -0.3341,-5.67456 -0.5918,-9.28648 -0.7773,-10.8442 -0.5191,-4.07976 -1.9982,-6.9783 -4.4461,-8.68437 -2.4108,-1.74318 -6.2897,-2.61164 -11.6304,-2.61164 l -34.6019,0 0,35.32493 -8.2326,0 0,-82.28029 z m 86.3379,0 63.2577,0 0,7.68132 -55.0253,0 0,28.81843 50.796,0 0,7.72647 -50.796,0 0,30.32758 55.0253,0 0,7.72649 -63.2577,0 0,-82.28029 z m -842.72926,6.8409 -18.91406,42.0664 37.71968,0 -18.80562,-42.0664 z m 61.19739,0.84042 0,31.5385 30.26434,0 c 7.86284,0 13.52193,-1.23824 16.97115,-3.72314 3.44925,-2.48494 5.16909,-6.52702 5.16909,-12.12744 0,-5.67456 -1.71984,-9.69952 -5.16909,-12.07318 -3.44922,-2.41078 -9.44382,-3.61474 -17.97426,-3.61474 l -29.26123,0 z m 703.42657,0 0,31.5385 30.2643,0 c 7.8627,0 13.5218,-1.23824 16.9712,-3.72314 3.4492,-2.48494 5.169,-6.52702 5.169,-12.12744 0,-5.67456 -1.7198,-9.69952 -5.169,-12.07318 -3.4494,-2.41078 -9.444,-3.61474 -17.9743,-3.61474 l -29.2612,0 z"
       id="path8050-8"
       inkscape:connector-curvature="0" />
    <path
       style="fill:none;stroke:none;stroke-width:0.01556373px;stroke-linecap:round;stroke-linejoin:round;stroke-miterlimit:4;stroke-dasharray:none;stroke-opacity:1"
       d="m 707.92909,72.851058 705.24851,0 0,452.904252 -1199.99801,0 0,-452.904252 365.89634,0"
       id="path8584"
       inkscape:connector-curvature="0" />
    <path
       style="fill:none;stroke:none;stroke-width:0.01556373px;stroke-linecap:round;stroke-linejoin:round;stroke-miterlimit:4;stroke-dasharray:none;stroke-opacity:1"
       d="M 373.67599,525.75531 605.10197,15.44104"
       id="path8586"
       inkscape:connector-curvature="0" />
    <path
       style="fill:none;stroke:none;stroke-width:0.01556373px;stroke-linecap:round;stroke-linejoin:round;stroke-miterlimit:4;stroke-dasharray:none;stroke-opacity:1"
       d="M 386.17768,72.851058 820.45431,525.75531"
       id="path8588"
       inkscape:connector-curvature="0" />
    <path
       style="fill:none;stroke:none;stroke-width:0.01556373px;stroke-linecap:round;stroke-linejoin:round;stroke-miterlimit:4;stroke-dasharray:none;stroke-opacity:1"
       d="M 1007.74,525.75531 937.57383,72.851058"
       id="path8590"
       inkscape:connector-curvature="0" />
    <path
       style="fill:none;stroke:none;stroke-width:0.01556373px;stroke-linecap:round;stroke-linejoin:round;stroke-miterlimit:4;stroke-dasharray:none;stroke-opacity:1"
       d="M 1061.8326,525.75531 1255.4942,72.851058"
       id="path8592"
       inkscape:connector-curvature="0" />
    <path
       style="fill:none;stroke:none;stroke-width:0.01556373px;stroke-linecap:round;stroke-linejoin:round;stroke-miterlimit:4;stroke-dasharray:none;stroke-opacity:1"
       d="M 605.10197,15.44104 1413.1776,466.55938"
       id="path8594"
       inkscape:connector-curvature="0" />
    <path
       style="fill:none;stroke:none;stroke-width:0.01556373px;stroke-linecap:round;stroke-linejoin:round;stroke-miterlimit:4;stroke-dasharray:none;stroke-opacity:1"
       d="m 350.19925,135.36448 0,194.94327 31.63853,0 0,-87.7761 100.78665,0 0,-31.12942 -100.78665,0 0,-45.67169 113.80198,0 0,-30.36606 -145.44051,0 z"
       id="path8596"
       inkscape:connector-curvature="0" />
    <path
       style="fill:none;stroke:none;stroke-width:0.01556373px;stroke-linecap:round;stroke-linejoin:round;stroke-miterlimit:4;stroke-dasharray:none;stroke-opacity:1"
       d="m 605.35641,174.40589 29.59809,66.59436 -59.19614,0 29.59805,-66.59436 z"
       id="path8612"
       inkscape:connector-curvature="0" />
    <path
       style="fill:none;stroke:none;stroke-width:0.01556373px;stroke-linecap:round;stroke-linejoin:round;stroke-miterlimit:4;stroke-dasharray:none;stroke-opacity:1"
       d="m 592.85473,135.36448 -88.28514,194.94327 31.89296,0 26.79409,-58.4325 84.19952,0 26.53974,58.4325 31.63834,0 -87.51693,-194.94327 -25.26258,0 z"
       id="path8614"
       inkscape:connector-curvature="0" />
    <path
       style="fill:none;stroke:none;stroke-width:0.01556373px;stroke-linecap:round;stroke-linejoin:round;stroke-miterlimit:4;stroke-dasharray:none;stroke-opacity:1"
       d="m 945.99465,135.36448 0,194.94327 151.30755,0 0,-30.366 -119.66907,0 0,-57.4101 109.71667,0 0,-30.36136 -109.71667,0 0,-46.69422 119.66907,0 0,-30.11159 -151.30755,0 z"
       id="path8616"
       inkscape:connector-curvature="0" />
    <path
       style="fill:none;stroke:none;stroke-width:0.01556373px;stroke-linecap:round;stroke-linejoin:round;stroke-miterlimit:4;stroke-dasharray:none;stroke-opacity:1"
       d="m 1128.9498,135.36448 0,29.85711 69.6342,0 0,165.08616 31.6476,0 0,-165.08616 69.6805,0 0,-29.85711 -170.9623,0 z"
       id="path8618"
       inkscape:connector-curvature="0" />
    <path
       style="fill:none;stroke:none;stroke-width:0.01556373px;stroke-linecap:round;stroke-linejoin:round;stroke-miterlimit:4;stroke-dasharray:none;stroke-opacity:1"
       d="m 821.73126,161.39055 8.6754,0.25447 11.73838,2.04513 10.46123,3.3174 8.92984,5.3579 3.82644,3.05836 6.88944,7.91192 5.35779,9.43882 5.61249,17.35066 31.12946,0 -4.58993,-21.17706 -4.33993,-11.99286 -5.61242,-10.7158 -7.3983,-9.43878 -8.93446,-7.91193 -1.78601,-1.53153 -9.94773,-6.12132 -10.9749,-4.84894 -11.99283,-3.31746 -13.0107,-2.04044 -13.77882,-0.76806 -21.68598,1.53153 -12.50644,2.80851 -11.7336,3.8264 -10.46142,5.35789 -9.69792,6.38045 -8.67527,7.65282 -4.59451,5.10342 -7.14386,9.1843 -5.61243,10.20684 -4.33993,11.22938 -3.31278,12.24728 -1.78602,13.01072 -0.7689,14.03786 0.25402,7.14397 1.2771,13.26513 2.54936,12.76092 3.83104,11.73363 5.10336,10.72041 6.37596,9.94779 7.65729,8.92982 3.05841,3.06298 9.44346,7.6575 9.95235,6.12132 10.97033,4.84893 11.9928,3.57185 12.7561,2.04043 13.52438,0.76728 6.88941,-0.25909 13.01076,-1.2722 12.50623,-2.80851 11.47937,-4.33531 10.46124,-5.61707 10.20678,-6.88941 5.35804,-4.84437 7.91192,-8.67522 6.63478,-9.95235 5.61246,-11.22952 4.33532,-12.24725 4.59451,-20.6682 -31.89291,0 -1.786,5.61705 -3.83105,12.50186 -4.84422,9.95236 -6.38053,8.67522 -8.16635,7.6529 -9.18432,5.8669 -9.95236,4.08548 -11.2247,2.54929 -12.24742,0.76889 -9.69774,-0.51312 -11.22476,-2.04044 -10.4614,-3.82632 -8.93442,-5.35798 -7.90734,-7.14383 -6.38039,-7.91191 -4.84893,-9.43874 -3.82647,-10.4614 -2.04043,-11.73824 -1.023,-13.26993 0,-0.25448 1.023,-13.26518 2.29486,-11.73834 3.57204,-10.20684 5.10342,-8.92982 6.63494,-8.1664 7.91194,-6.6349 8.92982,-5.10343 10.20681,-3.82641 11.47917,-2.29492 13.01535,-0.76806 z"
       id="path8620"
       inkscape:connector-curvature="0" />
    <path
       style="fill:none;stroke:none;stroke-width:0.01556373px;stroke-linecap:round;stroke-linejoin:round;stroke-miterlimit:4;stroke-dasharray:none;stroke-opacity:1"
       d="m 350.19925,135.36448 0,194.94327 31.63853,0 0,-87.7761 100.78665,0 0,-31.12942 -100.78665,0 0,-45.67169 113.80198,0 0,-30.36606 -145.44051,0 z"
       id="path8622"
       inkscape:connector-curvature="0" />
    <path
       style="fill:none;stroke:none;stroke-width:0.01556373px;stroke-linecap:round;stroke-linejoin:round;stroke-miterlimit:4;stroke-dasharray:none;stroke-opacity:1"
       d="m 605.35641,174.40589 29.59809,66.59436 -59.19614,0 29.59805,-66.59436 z"
       id="path8624"
       inkscape:connector-curvature="0" />
    <path
       style="fill:none;stroke:none;stroke-width:0.01556373px;stroke-linecap:round;stroke-linejoin:round;stroke-miterlimit:4;stroke-dasharray:none;stroke-opacity:1"
       d="m 592.85473,135.36448 -88.28514,194.94327 31.89296,0 26.79409,-58.4325 84.19952,0 26.53974,58.4325 31.63834,0 -87.51693,-194.94327 -25.26258,0 z"
       id="path8626"
       inkscape:connector-curvature="0" />
    <path
       style="fill:none;stroke:none;stroke-width:0.01556373px;stroke-linecap:round;stroke-linejoin:round;stroke-miterlimit:4;stroke-dasharray:none;stroke-opacity:1"
       d="m 945.99465,135.36448 0,194.94327 151.30755,0 0,-30.366 -119.66907,0 0,-57.4101 109.71667,0 0,-30.36136 -109.71667,0 0,-46.69422 119.66907,0 0,-30.11159 -151.30755,0 z"
       id="path8628"
       inkscape:connector-curvature="0" />
    <path
       style="fill:none;stroke:none;stroke-width:0.01556373px;stroke-linecap:round;stroke-linejoin:round;stroke-miterlimit:4;stroke-dasharray:none;stroke-opacity:1"
       d="m 1128.9498,135.36448 0,29.85711 69.6342,0 0,165.08616 31.6476,0 0,-165.08616 69.6805,0 0,-29.85711 -170.9623,0 z"
       id="path8630"
       inkscape:connector-curvature="0" />
  </g>
  <g
     inkscape:groupmode="layer"
     id="layer5"
     inkscape:label="Layer 3"
     transform="translate(-213.17773,-15.43924)" />
</svg>
