<?xml version="1.0" encoding="UTF-8" standalone="no"?>
<!-- Created with Inkscape (http://www.inkscape.org/) -->

<svg
   xmlns:dc="http://purl.org/dc/elements/1.1/"
   xmlns:cc="http://creativecommons.org/ns#"
   xmlns:rdf="http://www.w3.org/1999/02/22-rdf-syntax-ns#"
   xmlns:svg="http://www.w3.org/2000/svg"
   xmlns="http://www.w3.org/2000/svg"
   xmlns:sodipodi="http://sodipodi.sourceforge.net/DTD/sodipodi-0.dtd"
   xmlns:inkscape="http://www.inkscape.org/namespaces/inkscape"
   width="338.66666mm"
   height="144.02324mm"
   viewBox="0 0 1200 510.31855"
   id="svg7497"
   version="1.1"
   inkscape:version="0.91 r13725"
   sodipodi:docname="inverted_lgt.svg">
  <defs
     id="defs7499">
    <pattern
       y="0"
       x="0"
       height="6"
       width="6"
       patternUnits="userSpaceOnUse"
       id="WMFhbasepattern" />
  </defs>
  <sodipodi:namedview
     id="base"
     pagecolor="#ffffff"
     bordercolor="#666666"
     borderopacity="1.0"
     inkscape:pageopacity="0.0"
     inkscape:pageshadow="2"
     inkscape:zoom="0.70710678"
     inkscape:cx="-84.498335"
     inkscape:cy="0.6720436"
     inkscape:document-units="px"
     inkscape:current-layer="layer4"
     showgrid="false"
     inkscape:window-width="1849"
     inkscape:window-height="1057"
     inkscape:window-x="1912"
     inkscape:window-y="-8"
     inkscape:window-maximized="1"
     fit-margin-top="0"
     fit-margin-left="0"
     fit-margin-right="0"
     fit-margin-bottom="0" />
  <metadata
     id="metadata7502">
    <rdf:RDF>
      <cc:Work
         rdf:about="">
        <dc:format>image/svg+xml</dc:format>
        <dc:type
           rdf:resource="http://purl.org/dc/dcmitype/StillImage" />
        <dc:title></dc:title>
      </cc:Work>
    </rdf:RDF>
  </metadata>
  <g
     inkscape:label="Layer 1"
     inkscape:groupmode="layer"
     id="layer1"
     transform="translate(-213.17773,-15.439269)" />
  <g
     inkscape:groupmode="layer"
     id="layer4"
     inkscape:label="Layer 2"
     transform="translate(-213.17773,-15.439269)">
    <path
       style="fill:#f9f9f9;fill-opacity:1;fill-rule:evenodd;stroke:none"
       d="m 605.10487,15.439269 -26.02606,57.41094 -192.90008,0 -173.001,0 0,62.516761 0,194.94238 0,195.44846 c 416.33028,-1.00768 858.72037,-0.0504 1199.99997,0 l 0,-59.20024 0,-136.24822 0,-165.08468 0,-29.8577 0,-62.516761 -157.6835,0 -317.92457,0 -229.6438,0 c -102.82166,-57.4107 -2.2e-4,2.2e-4 -102.82096,-57.41094 z m 216.8838,114.821921 13.77212,0.7681 13.01302,2.04234 8.4223,2.29534 3.56954,1.0212 10.97976,4.8437 9.94954,6.12698 1.78026,1.27418 8.93742,8.16928 7.40116,9.43448 5.61188,10.71764 2.80142,7.6542 1.27418,3.5786 0.27114,0.75908 3.56956,16.84466 1.02116,4.33768 -31.13188,0 -0.75908,-2.81048 -3.32556,-10.20254 -1.52724,-4.33768 -2.54838,-4.59072 -2.81044,-4.85278 -2.54838,-3.31654 -4.33766,-4.59066 -2.2954,-2.04234 -1.53624,-1.02116 -7.1391,-4.08466 -1.78926,-1.2742 -8.1693,-2.54838 -2.29534,-0.7681 -9.69654,-1.52724 -2.03328,-0.5151 -8.67536,-0.2531 -7.66322,0.2531 -5.35882,0.5151 -7.6542,1.52724 -3.82258,0.7681 -7.14812,2.54838 -3.05446,1.2742 -6.89508,4.08466 -2.04234,1.02116 -2.29534,2.04234 -5.61186,4.59066 -2.54842,3.31654 -4.08464,4.85278 -2.54838,4.59072 -2.5574,4.33768 -3.56956,10.20254 -0.51512,2.81048 -1.78022,8.92836 -1.02116,13.26606 0,0.2531 1.02116,13.27508 0,0.75908 1.02114,5.6209 1.01212,5.35886 2.55746,7.1391 1.27418,3.31648 3.56952,6.64208 1.2742,2.80142 4.85278,5.87394 1.53626,2.03326 6.11794,5.61188 1.7893,1.5363 7.14812,4.33768 1.78024,1.02114 8.42234,3.06348 2.0423,0.75908 9.68748,1.7893 1.53626,0.2531 9.69654,0.51506 7.40116,-0.51506 4.84372,-0.2531 7.90724,-1.7893 3.31648,-0.75908 7.40116,-3.06348 2.55746,-1.02114 6.88606,-4.33768 2.29532,-1.5363 6.12698,-5.61188 2.04234,-2.03326 4.33768,-5.87394 2.04228,-2.80142 3.31654,-6.64208 1.52724,-3.31648 2.29532,-7.1391 1.53626,-5.35886 1.78028,-5.6209 31.89998,0 -4.59974,20.66724 -4.32866,12.25394 -5.62088,11.22374 -6.63306,9.95856 -7.9072,8.67536 -5.35882,4.84376 -10.2116,6.88604 -10.45564,5.6209 -9.6965,3.56952 -1.7893,0.75914 -12.49792,2.81044 -13.01302,1.27418 -6.89512,0.26188 -3.31654,-0.26188 -10.20254,-0.50608 -12.76002,-2.0423 -7.65416,-2.29538 -4.33768,-1.27418 -10.97074,-4.85274 -9.94954,-6.11796 -9.44344,-7.66322 -3.0635,-3.06348 -7.6542,-8.9284 -6.37094,-9.94954 -5.10584,-10.71766 -3.83158,-11.7298 -2.54838,-12.76902 -1.28326,-13.25704 -0.26188,-7.14812 0.76814,-14.03418 1.7893,-13.01302 3.31648,-12.24492 4.33768,-11.23276 5.61186,-10.20258 7.1391,-9.19046 4.59974,-5.10578 8.67536,-7.64518 9.69654,-6.38002 10.4646,-5.35882 9.18144,-3.0635 2.54838,-0.7681 12.507,-2.81044 10.2116,-0.99408 1.05728,-0.0278 2.25018,-0.24384 8.16932,-0.26188 z m 124.51842,0.20774 0.23504,1.49106 -0.23504,-0.93078 0,-0.56028 z m -596.30396,4.89794 95.93492,0 49.50372,0 0,30.36374 -20.41418,0 -93.38654,0 0,43.88284 0,1.7893 100.7877,0 0,31.13184 -100.7877,0 0,87.77466 -31.63792,0 0,-194.94238 z m 242.6478,0 25.26696,0 1.2742,3.0635 2.54838,5.35882 2.81044,6.38002 3.56952,7.64518 2.04234,5.10578 4.33768,9.19046 4.33768,10.20258 5.10582,11.23276 5.61188,12.24492 5.86486,13.01302 6.12696,14.03418 3.31654,7.14812 5.8649,13.25704 5.87394,12.76902 5.09676,11.72982 4.85278,10.71764 4.33768,9.94954 4.08462,8.9284 1.52724,3.06348 3.31652,7.66322 2.81044,6.11796 2.04234,4.85274 0.7591,1.27418 -31.63794,0 -26.53214,-58.43208 -70.677,0 -13.52814,0 -26.79416,58.43208 -31.89096,0 41.08142,-91.0912 3.0635,-6.37996 10.4646,-23.22464 33.67124,-74.24658 z m 353.14104,0 1.2742,0 150.03843,0 0,29.8577 0,0.25308 -119.67469,0 0,40.31332 0,6.37998 109.71609,0 0,30.36372 -75.5208,0 -34.19529,0 0,57.41094 119.67469,0 0,19.6461 0,10.71764 -119.92775,0 -31.38488,0 0,-3.56952 0,-5.6209 0,-6.88606 0,-4.84376 0,-8.67534 0,-9.95856 0,-11.22374 0,-12.25394 0,-20.66724 0,-0.75908 0,-13.2751 0,-0.25308 0,-13.26608 0,-8.92834 0,-4.33768 0,-21.18234 0,-7.6542 0,-10.71764 0,-9.43448 0,-8.16928 0,-1.27418 0,-6.12698 0,-4.84372 0,-1.02118 z m 182.95963,0 99.7574,0 71.2012,0 0,29.8577 -69.683,0 0,165.08468 -31.6469,0 0,-10.71764 0,-113.80072 -2.7924,6.52456 0.018,-0.1444 2.7743,-6.37998 0,-40.31332 0,-0.25308 -69.6287,0 0,-29.8577 z m -523.59373,39.0391 -29.59558,66.59236 59.1912,0 -29.59562,-66.59236 z m -34.6562,204.38588 c 10.60734,0 19.28496,2.5802 26.03508,7.73554 6.75016,5.15528 10.79222,12.2763 12.12744,21.36302 l -8.34102,0 c -1.59482,-6.75012 -4.9921,-11.94478 -10.18448,-15.57946 -5.1924,-3.67178 -11.78048,-5.50346 -19.7545,-5.50346 -10.79278,0 -19.28098,3.14746 -25.47482,9.45254 -6.19378,6.26794 -9.28984,14.8942 -9.28984,25.87244 0,10.71862 3.00134,19.26728 9.00968,25.64652 6.0084,6.37922 14.0583,9.57 24.1464,9.57 8.30784,0 15.36842,-2.24472 21.19136,-6.73246 5.86002,-4.52482 9.62706,-10.60506 11.29606,-18.24534 l 8.7386,0 c -1.89156,10.16228 -6.50994,18.20316 -13.85346,24.13736 -7.34354,5.93418 -16.3909,8.90124 -27.14662,8.90124 -12.64724,0 -22.77866,-3.93024 -30.38182,-11.79302 -7.56608,-7.86278 -11.35024,-18.35496 -11.35024,-31.4843 0,-13.46318 3.8446,-24.05002 11.52194,-31.76448 7.67734,-7.71444 18.24706,-11.57614 31.71024,-11.57614 z m 361.16572,0 c 10.6074,0 19.28502,2.5802 26.03514,7.73554 6.7501,5.15528 10.79222,12.2763 12.1274,21.36302 l -8.34102,0 c -1.59478,-6.75012 -4.99206,-11.94478 -10.1845,-15.57946 -5.1924,-3.67178 -11.7714,-5.50346 -19.74542,-5.50346 -10.79284,0 -19.2901,3.14746 -25.48388,9.45254 -6.19378,6.26794 -9.28984,14.8942 -9.28984,25.87244 0,10.71862 3.01036,19.26728 9.01874,25.64652 6.00836,6.37922 14.04926,9.57 24.13738,9.57 8.30784,0 15.37744,-2.24472 21.20038,-6.73246 5.86002,-4.52482 9.62706,-10.60506 11.29602,-18.24534 l 8.72958,0 c -1.89152,10.16228 -6.5099,18.20316 -13.85346,24.13736 -7.34352,5.93418 -16.3909,8.90124 -27.14664,8.90124 -12.64722,0 -22.76958,-3.93024 -30.37274,-11.79302 -7.56608,-7.86278 -11.35024,-18.35496 -11.35024,-31.4843 0,-13.46318 3.83552,-24.05002 11.51292,-31.76448 7.67734,-7.71444 18.24706,-11.57614 31.71018,-11.57614 z m -544.36926,2.16882 9.46154,0 37.49376,82.28028 -8.28674,0 -11.5129,-25.42058 -45.01246,0 -11.63038,25.42058 -8.44942,0 37.9366,-82.28028 z m 57.63686,0 39.44574,0 c 9.7914,0 17.15322,1.85782 22.086,5.56672 4.9328,3.70884 7.40112,9.22996 7.40112,16.57352 0,5.45202 -1.15254,9.82962 -3.45204,13.13052 -2.2624,3.26378 -5.85718,5.71504 -10.78996,7.34692 4.191,0.66756 7.17522,2.06094 8.9555,4.175 1.81734,2.11406 3.0384,5.93246 3.66896,11.45868 0.25956,2.11406 0.51764,5.03786 0.77712,8.78382 0.51928,7.89988 1.59428,12.98272 3.22618,15.2451 l -9.56098,0 c -1.03846,-3.1525 -1.72662,-7.54722 -2.0604,-13.18472 -0.33406,-5.67456 -0.59172,-9.28648 -0.77716,-10.8442 -0.51924,-4.07976 -2.00732,-6.9783 -4.45516,-8.68436 -2.41078,-1.74318 -6.28964,-2.61164 -11.63038,-2.61164 l -34.60202,0 0,35.32492 -8.23252,0 0,-82.28028 z m 178.69416,0 8.23256,0 0,34.3309 53.51606,0 0,-34.3309 8.24158,0 0,82.28028 -8.24158,0 0,-40.10542 -53.51606,0 0,40.10542 -8.23256,0 0,-82.28028 z m 90.01582,0 8.23256,0 0,82.28028 -8.23256,0 0,-82.28028 z m 18.68814,0 71.77048,0 0,7.56386 -31.76442,0 0,74.71642 -8.23256,0 0,-74.71642 -31.7735,0 0,-7.56386 z m 81.78326,0 63.2578,0 0,7.68132 -55.02524,0 0,28.81842 50.79602,0 0,7.72648 -50.79602,0 0,30.32758 55.02524,0 0,7.72648 -63.2578,0 0,-82.28028 z m 161.22604,0 71.76139,0 0,7.56386 -31.7644,0 0,74.71642 -8.2326,0 0,-74.71642 -31.76439,0 0,-7.56386 z m 81.89169,0 8.341,0 0,50.51586 c 0,8.97546 2.2104,15.55448 6.624,19.74548 4.4135,4.1539 11.3452,6.23538 20.8027,6.23538 9.4947,0 16.4697,-2.0986 20.9203,-6.2896 4.4507,-4.19102 6.6782,-10.75286 6.6782,-19.69126 l 0,-50.51586 8.2868,0 0,52.6847 c 0,10.2365 -3.096,18.09702 -9.2899,23.58614 -6.1567,5.452 -15.0237,8.17828 -26.5954,8.17828 -11.6829,0 -20.567,-2.72628 -26.6495,-8.17828 -6.0826,-5.45206 -9.1182,-13.44158 -9.1182,-23.97474 l 0,-52.2961 z m 91.1274,0 39.4457,0 c 9.7913,0 17.1532,1.85782 22.086,5.56672 4.9328,3.70884 7.3921,9.22996 7.3921,16.57352 0,5.45202 -1.1435,9.82962 -3.443,13.13052 -2.2624,3.26378 -5.8662,5.71504 -10.799,7.34692 4.191,0.66756 7.1842,2.06094 8.9645,4.175 1.8174,2.11406 3.0385,5.93246 3.6689,11.45868 0.2596,2.11406 0.5177,5.03786 0.7772,8.78382 0.5192,7.89988 1.5942,12.98272 3.2262,15.2451 l -9.57,0 c -1.0385,-3.1525 -1.7266,-7.54722 -2.0604,-13.18472 -0.3341,-5.67456 -0.5917,-9.28648 -0.7772,-10.8442 -0.5192,-4.07976 -1.9983,-6.9783 -4.4461,-8.68436 -2.4108,-1.74318 -6.2897,-2.61164 -11.6304,-2.61164 l -34.602,0 0,35.32492 -8.2325,0 0,-82.28028 z m 86.3378,0 63.2578,0 0,7.68132 -55.0253,0 0,28.81842 50.796,0 0,7.72648 -50.796,0 0,30.32758 55.0253,0 0,7.72648 -63.2578,0 0,-82.28028 z m -842.72917,6.8409 -18.91406,42.0664 37.71968,0 -18.80562,-42.0664 z m 61.19738,0.84042 0,31.5385 30.26434,0 c 7.86284,0 13.52194,-1.23824 16.97116,-3.72314 3.44924,-2.48494 5.16908,-6.52702 5.16908,-12.12744 0,-5.67456 -1.71984,-9.69952 -5.16908,-12.07318 -3.44922,-2.41078 -9.44382,-3.61474 -17.97426,-3.61474 l -29.26124,0 z m 703.42649,0 0,31.5385 30.2643,0 c 7.8628,0 13.5219,-1.23824 16.9712,-3.72314 3.4492,-2.48494 5.169,-6.52702 5.169,-12.12744 0,-5.67456 -1.7198,-9.69952 -5.169,-12.07318 -3.4493,-2.41078 -9.4439,-3.61474 -17.9743,-3.61474 l -29.2612,0 z"
       id="path8050-8"
       inkscape:connector-curvature="0" />
    <path
       style="fill:none;stroke:none;stroke-width:0.01556373px;stroke-linecap:round;stroke-linejoin:round;stroke-miterlimit:4;stroke-dasharray:none;stroke-opacity:1"
       d="m 707.92907,72.851089 705.24843,0 0,452.904221 -1199.99791,0 0,-452.904221 365.89632,0"
       id="path8584"
       inkscape:connector-curvature="0" />
    <path
       style="fill:none;stroke:none;stroke-width:0.01556373px;stroke-linecap:round;stroke-linejoin:round;stroke-miterlimit:4;stroke-dasharray:none;stroke-opacity:1"
       d="M 373.67599,525.75531 605.10195,15.441069"
       id="path8586"
       inkscape:connector-curvature="0" />
    <path
       style="fill:none;stroke:none;stroke-width:0.01556373px;stroke-linecap:round;stroke-linejoin:round;stroke-miterlimit:4;stroke-dasharray:none;stroke-opacity:1"
       d="M 386.17767,72.851089 820.45427,525.75531"
       id="path8588"
       inkscape:connector-curvature="0" />
    <path
       style="fill:none;stroke:none;stroke-width:0.01556373px;stroke-linecap:round;stroke-linejoin:round;stroke-miterlimit:4;stroke-dasharray:none;stroke-opacity:1"
       d="M 1007.74,525.75531 937.57379,72.851089"
       id="path8590"
       inkscape:connector-curvature="0" />
    <path
       style="fill:none;stroke:none;stroke-width:0.01556373px;stroke-linecap:round;stroke-linejoin:round;stroke-miterlimit:4;stroke-dasharray:none;stroke-opacity:1"
       d="M 1061.8326,525.75531 1255.4942,72.851089"
       id="path8592"
       inkscape:connector-curvature="0" />
    <path
       style="fill:none;stroke:none;stroke-width:0.01556373px;stroke-linecap:round;stroke-linejoin:round;stroke-miterlimit:4;stroke-dasharray:none;stroke-opacity:1"
       d="M 605.10195,15.441069 1413.1775,466.55939"
       id="path8594"
       inkscape:connector-curvature="0" />
    <path
       style="fill:none;stroke:none;stroke-width:0.01556373px;stroke-linecap:round;stroke-linejoin:round;stroke-miterlimit:4;stroke-dasharray:none;stroke-opacity:1"
       d="m 350.19925,135.36451 0,194.94326 31.63852,0 0,-87.7761 100.78664,0 0,-31.12942 -100.78664,0 0,-45.67168 113.80198,0 0,-30.36606 -145.4405,0 z"
       id="path8596"
       inkscape:connector-curvature="0" />
    <path
       style="fill:none;stroke:none;stroke-width:0.01556373px;stroke-linecap:round;stroke-linejoin:round;stroke-miterlimit:4;stroke-dasharray:none;stroke-opacity:1"
       d="m 605.35639,174.40591 29.59808,66.59436 -59.19612,0 29.59804,-66.59436 z"
       id="path8612"
       inkscape:connector-curvature="0" />
    <path
       style="fill:none;stroke:none;stroke-width:0.01556373px;stroke-linecap:round;stroke-linejoin:round;stroke-miterlimit:4;stroke-dasharray:none;stroke-opacity:1"
       d="m 592.85471,135.36451 -88.28514,194.94326 31.89296,0 26.7941,-58.4325 84.1995,0 26.53974,58.4325 31.63834,0 -87.51692,-194.94326 -25.26258,0 z"
       id="path8614"
       inkscape:connector-curvature="0" />
    <path
       style="fill:none;stroke:none;stroke-width:0.01556373px;stroke-linecap:round;stroke-linejoin:round;stroke-miterlimit:4;stroke-dasharray:none;stroke-opacity:1"
       d="m 945.99461,135.36451 0,194.94326 151.30759,0 0,-30.366 -119.66911,0 0,-57.4101 109.71671,0 0,-30.36136 -109.71671,0 0,-46.69422 119.66911,0 0,-30.11158 -151.30759,0 z"
       id="path8616"
       inkscape:connector-curvature="0" />
    <path
       style="fill:none;stroke:none;stroke-width:0.01556373px;stroke-linecap:round;stroke-linejoin:round;stroke-miterlimit:4;stroke-dasharray:none;stroke-opacity:1"
       d="m 1128.9498,135.36451 0,29.8571 69.6341,0 0,165.08616 31.6477,0 0,-165.08616 69.6805,0 0,-29.8571 -170.9623,0 z"
       id="path8618"
       inkscape:connector-curvature="0" />
    <path
       style="fill:none;stroke:none;stroke-width:0.01556373px;stroke-linecap:round;stroke-linejoin:round;stroke-miterlimit:4;stroke-dasharray:none;stroke-opacity:1"
       d="m 821.73123,161.39057 8.6754,0.25448 11.73838,2.04512 10.46122,3.3174 8.92984,5.3579 3.82644,3.05836 6.88944,7.91192 5.3578,9.43882 5.61248,17.35066 31.12946,0 -4.58992,-21.17706 -4.33994,-11.99286 -5.61242,-10.7158 -7.3983,-9.43878 -8.93446,-7.91192 -1.786,-1.53154 -9.94774,-6.12132 -10.9749,-4.84894 -11.99282,-3.31746 -13.0107,-2.04044 -13.77882,-0.76806 -21.68598,1.53154 -12.50644,2.8085 -11.7336,3.8264 -10.46142,5.3579 -9.69792,6.38044 -8.67526,7.65282 -4.59452,5.10342 -7.14386,9.1843 -5.61242,10.20684 -4.33994,11.22938 -3.31278,12.24728 -1.78602,13.01072 -0.7689,14.03786 0.25402,7.14396 1.2771,13.26514 2.54936,12.76092 3.83104,11.73362 5.10336,10.72042 6.37596,9.94778 7.6573,8.92982 3.0584,3.06298 9.44346,7.6575 9.95236,6.12132 10.97032,4.84894 11.9928,3.57184 12.7561,2.04044 13.52438,0.76728 6.8894,-0.2591 13.01076,-1.2722 12.50624,-2.8085 11.47936,-4.33532 10.46124,-5.61706 10.20678,-6.88942 5.35804,-4.84436 7.91192,-8.67522 6.63478,-9.95236 5.61246,-11.22952 4.33532,-12.24724 4.59452,-20.6682 -31.89292,0 -1.786,5.61704 -3.83104,12.50186 -4.84422,9.95236 -6.38054,8.67522 -8.16634,7.6529 -9.18432,5.8669 -9.95236,4.08548 -11.2247,2.5493 -12.24742,0.76888 -9.69774,-0.51312 -11.22476,-2.04044 -10.4614,-3.82632 -8.93442,-5.35798 -7.90734,-7.14382 -6.38038,-7.91192 -4.84894,-9.43874 -3.82646,-10.4614 -2.04044,-11.73824 -1.023,-13.26992 0,-0.25448 1.023,-13.26518 2.29486,-11.73834 3.57204,-10.20684 5.10342,-8.92982 6.63494,-8.1664 7.91194,-6.6349 8.92982,-5.10342 10.2068,-3.82642 11.47918,-2.29492 13.01534,-0.76806 z"
       id="path8620"
       inkscape:connector-curvature="0" />
    <path
       style="fill:none;stroke:none;stroke-width:0.01556373px;stroke-linecap:round;stroke-linejoin:round;stroke-miterlimit:4;stroke-dasharray:none;stroke-opacity:1"
       d="m 350.19925,135.36451 0,194.94326 31.63852,0 0,-87.7761 100.78664,0 0,-31.12942 -100.78664,0 0,-45.67168 113.80198,0 0,-30.36606 -145.4405,0 z"
       id="path8622"
       inkscape:connector-curvature="0" />
    <path
       style="fill:none;stroke:none;stroke-width:0.01556373px;stroke-linecap:round;stroke-linejoin:round;stroke-miterlimit:4;stroke-dasharray:none;stroke-opacity:1"
       d="m 605.35639,174.40591 29.59808,66.59436 -59.19612,0 29.59804,-66.59436 z"
       id="path8624"
       inkscape:connector-curvature="0" />
    <path
       style="fill:none;stroke:none;stroke-width:0.01556373px;stroke-linecap:round;stroke-linejoin:round;stroke-miterlimit:4;stroke-dasharray:none;stroke-opacity:1"
       d="m 592.85471,135.36451 -88.28514,194.94326 31.89296,0 26.7941,-58.4325 84.1995,0 26.53974,58.4325 31.63834,0 -87.51692,-194.94326 -25.26258,0 z"
       id="path8626"
       inkscape:connector-curvature="0" />
    <path
       style="fill:none;stroke:none;stroke-width:0.01556373px;stroke-linecap:round;stroke-linejoin:round;stroke-miterlimit:4;stroke-dasharray:none;stroke-opacity:1"
       d="m 945.99461,135.36451 0,194.94326 151.30759,0 0,-30.366 -119.66911,0 0,-57.4101 109.71671,0 0,-30.36136 -109.71671,0 0,-46.69422 119.66911,0 0,-30.11158 -151.30759,0 z"
       id="path8628"
       inkscape:connector-curvature="0" />
    <path
       style="fill:none;stroke:none;stroke-width:0.01556373px;stroke-linecap:round;stroke-linejoin:round;stroke-miterlimit:4;stroke-dasharray:none;stroke-opacity:1"
       d="m 1128.9498,135.36451 0,29.8571 69.6341,0 0,165.08616 31.6477,0 0,-165.08616 69.6805,0 0,-29.8571 -170.9623,0 z"
       id="path8630"
       inkscape:connector-curvature="0" />
  </g>
  <g
     inkscape:groupmode="layer"
     id="layer5"
     inkscape:label="Layer 3"
     transform="translate(-213.17773,-15.439269)" />
</svg>
